<?xml version="1.0" encoding="UTF-8"?>
<svg id="Layer_1" data-name="Layer 1" xmlns="http://www.w3.org/2000/svg" viewBox="0 0 88.67 164.76">
  <defs>
    <style>
      .cls-1 {
        fill: #3390ac;
      }

      .cls-2 {
        fill: #181516;
      }
    </style>
  </defs>
  <g>
    <path class="cls-1" d="M68.96,53.89h-22.79v22.17c1.2-.54,2.37-.89,3.46-1.01l.86-1.87.05-.1.06-.1c.68-1.15,1.95-1.81,3.47-1.81h0c.29,0,.59.03.89.08v-8.56h13.45v49.14c0,9.24-5.53,17.21-13.45,20.78v-24.57c-2.38,1.79-5.11,3.38-7.71,4.48-.36.15-.72.29-1.07.43v30.44c17.18-.29,31.02-14.31,31.02-31.56v-49.69c0-4.55-3.69-8.24-8.24-8.24Z"/>
    <path class="cls-1" d="M49.45,99.67l.03-.03c2.74-2.1,3.78-3.32,3.84-3.76.06-.44.21-1.48,1.46-2.27.06-.04.12-.07.19-.1v-1.27c-.33.17-.67.3-1.02.41-.42.12-.89.18-1.39.18-1.41,0-3.09-.48-4.56-1.42.45.68.77,1.45.9,2.2l.02.1v.1c.1,1.08-.33,2.23-1.12,3.01-.52.51-1.07.81-1.56,1.03-.02.01-.04.02-.06.04v4.03c1.14-.66,2.26-1.42,3.24-2.24l.03-.03Z"/>
  </g>
  <g>
    <path class="cls-1" d="M19.88,53.89c-4.55,0-8.24,3.69-8.24,8.24v.54h16.08s6.16,0,6.16,0v23.57c.36-.69.82-1.38,1.38-2.07.28-.34.58-.69.95-1.1,1.69-1.88,3.55-3.57,5.68-5.16l.04-.03h.01c.24-.18.48-.34.72-.5v-23.49h-22.79Z"/>
    <path class="cls-1" d="M36.54,104.99c.09-.01.18-.03.26-.04,1.83-.33,4.05-1.08,5.52-1.67.11-.05.23-.1.34-.15v-3.63c-1.29.94-2.78,2.12-4.1,3.35-.81.76-1.51,1.49-2.03,2.14Z"/>
    <path class="cls-1" d="M40.14,117.2l-.57,1.25-1.37.03c-.14,0-.29,0-.44,0-1.56,0-2.85-.18-3.87-.55v14.66c-7.92-3.57-13.45-11.54-13.45-20.78v-13.65h-8.79v13.65c0,17.25,13.84,31.26,31.02,31.56v-29.63c-.36.11-.72.2-1.08.29l-1.45,3.16Z"/>
    <path class="cls-1" d="M33.89,112.17l.09-.19s-.06-.03-.09-.04v.23Z"/>
  </g>
  <path class="cls-2" d="M55.82,95.36c-.16,0-.3.04-.42.11-.77.48-.11.75-.98,2.03-.54.8-1.68,1.99-4.15,3.88-1.34,1.11-2.96,2.18-4.64,3.05-.64.33-1.28.63-1.93.89-.15.06-.31.12-.47.18-1.45.56-3.59,1.26-5.48,1.6-.74.13-1.44.21-2.03.21-.25,0-.48-.01-.68-.04-.26-.03-.45-.08-.6-.14-.25-.1-.37-.22-.44-.36-.14-.3-.06-.93.44-1.81.05-.09.11-.19.17-.29.66-1.04,1.76-2.25,3.02-3.43,1.83-1.71,4-3.35,5.6-4.42.58-.39,1.09-.71,1.47-.92.36-.16.67-.33.94-.57.03-.02.05-.04.08-.07.3-.3.52-.82.48-1.25-.08-.47-.28-.93-.56-1.35-.53-.81-1.36-1.42-2.23-1.42-.05,0-.1,0-.15,0,0,0-.02,0-.03,0-.21.02-.44.03-.68.03-1.03,0-2.06-.26-1.1-1.5.44-.65,1.05-1.39,1.78-2.16.72-.77,1.55-1.58,2.41-2.35,2.72-2.46,5.75-4.65,6.7-4.65.09,0,.16.02.21.06.36.28.07,1.57-2.17,4.17-1.12,1.3-2.57,2.26-3.73,2.66,1.16,2.12,3.72,3.13,5.37,3.13.29,0,.56-.03.78-.1.61-.18,1.15-.51,1.63-.94,1.17-1.05,1.99-2.69,2.56-4.23.78-2.81-.08-4.74-1.28-6.07l1.59-3.46c-.54-1.26-1.73-2.08-2.87-2.37-.31-.08-.61-.13-.89-.13-.69,0-1.28.24-1.58.74l-1.44,3.13c-.17-.02-.35-.03-.54-.03-1.22,0-2.75.46-4.33,1.31-.62.33-1.25.72-1.87,1.17h0s0,0,0,0c-.18.14-.35.28-.53.41-1.78,1.38-3.37,2.83-4.82,4.45-.3.33-.59.67-.89,1.03-1.14,1.39-1.7,2.68-1.81,3.85-.1,1.17.27,2.18.78,2.92.39.57.84,1,1.25,1.32-1.27.9-2.36,1.8-3.31,2.7-1.45,1.37-2.56,2.71-3.41,3.95-1.03,1.5-1.66,3.15-1.66,4.81s.66,3.3,2.03,4.62c1.02.98,1.98,1.73,3.05,2.21.03.01.06.03.09.04l-.09.19-.54,1.18c-.41,1.02-.11,1.7.54,2.14.91.63,2.51.79,3.87.79.13,0,.26,0,.39,0l1.91-4.15c.87-.18,1.74-.41,2.62-.69.8-.25,1.61-.55,2.41-.88.07-.03.15-.06.22-.09,2.87-1.21,6.04-3.13,8.55-5.23,0,0,0,0,.01-.01,1.25-1.05,2.33-2.14,3.13-3.23.8-1.1,1.33-2.22,1.35-3.4.02-1.23-1.9-3.24-3.08-3.24Z"/>
  <path class="cls-2" d="M1.85,4.99c1.98-.54,7.07,3.46,9.07,6.61.56.89,3.05,5.65,2.13,6.16-4.21,1.2-2.64-.14-4.82-3.7C4.83,8.49.46,8.01.17,7.56c.56-.86,1.12-1.72,1.68-2.58Z"/>
  <path class="cls-2" d="M86.54,4.99c1.43-.1,2.21,2.3,2.13,2.58-.22.72-7.22,2.08-9.3,11.09l-3.36-.67c-.01-3.9,3.87-9.11,6.94-11.2,1.19-.6,2.39-1.19,3.58-1.79Z"/>
  <path class="cls-2" d="M13.5,20c.29,5.74-.56,11.42-.78,17.14-2.5,1.38-5,2.76-7.5,4.14-1-.14-1.8-4.08-1.68-5.04.3-2.48,5.16-4.03,4.7-7.17-1.12-2.02-2.24-4.03-3.36-6.05.91-.41,2.23.33,2.35.34,2.75.12,3.27-2.95,6.27-3.36Z"/>
  <path class="cls-2" d="M75.78,20.22c2.67.07,4.13,2.72,4.93,2.91l3.7-.34c.68,1.06-3.33,5.16-3.14,7.17.2,2.09,4.92,4.44,4.48,9.41-.19.63-.37,1.27-.56,1.9-1.43.59-6.84-3.75-8.4-4.59.32-5.52-1.03-10.96-1.01-16.47Z"/>
  <path class="cls-2" d="M75.34,39.26c.45.15.9.3,1.34.45,1.83,1.61,3.66,3.21,5.49,4.82-.97.81-7.78,7.03-8.4,6.61-.11-3.25-1.02-6.35-2.35-9.3,1.31-.86,2.61-1.72,3.92-2.58Z"/>
  <path class="cls-2" d="M13.73,39.49c1.46.71,2.91,1.42,4.37,2.13-1.47,3.09-2.19,6.34-2.58,9.75-.48.32-7.5-6.05-8.4-6.83,2.2-1.68,4.41-3.36,6.61-5.04Z"/>
  <g>
    <path class="cls-2" d="M12.09,126.47c4.25,6.82,8.45,13.8,13.78,19.83-1.87.66-4.43,3.34-5.47,2.54-.59-1.43-1.17-2.87-1.76-4.3-1.37-2.28-2.74-4.56-4.1-6.84-.4-.96-3.32-11.11-2.44-11.24Z"/>
    <path class="cls-2" d="M24.98,149.34c1.55-.27,4.87,8.29,4.01,12.8-.77,4-3.56,1.97-3.71,1.56-.22-.59,1.15-2.23.59-6.06-.55-3.74-2.87-6.1-2.93-6.45.68-.62,1.37-1.24,2.05-1.86Z"/>
  </g>
  <g>
    <path class="cls-2" d="M7.51,97.97c.2,8.03.29,16.18,1.82,24.08-1.94-.38-5.51.63-6-.58.22-1.53.44-3.06.66-4.6-.02-2.66-.05-5.32-.07-7.98.14-1.03,2.77-11.26,3.59-10.92Z"/>
    <path class="cls-2" d="M7.03,124.21c1.47.55,0,9.61-3.04,13.06-2.69,3.06-4.07-.1-3.99-.53.11-.63,2.12-1.34,3.58-4.92,1.42-3.5.62-6.71.74-7.04.9-.19,1.81-.37,2.71-.56Z"/>
  </g>
  <g>
    <path class="cls-2" d="M81.16,97.97c-.2,8.03-.29,16.18-1.82,24.08,1.94-.38,5.51.63,6-.58-.22-1.53-.44-3.06-.66-4.6.02-2.66.05-5.32.07-7.98-.14-1.03-2.77-11.26-3.59-10.92Z"/>
    <path class="cls-2" d="M81.64,124.21c-1.47.55,0,9.61,3.04,13.06,2.69,3.06,4.07-.1,3.99-.53-.11-.63-2.12-1.34-3.58-4.92-1.42-3.5-.62-6.71-.74-7.04-.9-.19-1.81-.37-2.71-.56Z"/>
  </g>
  <g>
    <path class="cls-2" d="M77.74,125.69c.72.11-2.63,11.39-2.64,12.41l-4.1,7.03c-2.71,5.12-.08,4.97-6.84.98,5.43-6.14,9.28-13.47,13.58-20.42Z"/>
    <path class="cls-2" d="M64.65,149.34c3.78,1.8,2.06,1.8,1.27,3.22-4,7.24-1.03,10.68-1.17,11.33-.11.49-3.32,2.6-3.91-2.34-.56-4.78.91-8.55,3.81-12.21Z"/>
  </g>
  <path class="cls-2" d="M43.97,27.17c-7.05.31-13.98,3.98-18.48,9.3-3.2,3.78-5.79,8.29-6.16,13.33,16.99.04,33.98.07,50.97.11-1.29-12.79-13.43-23.3-26.32-22.74Z"/>
  <path class="cls-2" d="M54.39,0s4.02,3.78,4.33,6.23c.32,2.44-6.54-3.55-6.54-3.55,0,0-2.44-.96-1.68,3.24.09.5.48.9.97,1.02,2.17.51,7.94,2.55,5.75,9.52,0,0-2.02,5.28-12.46.6h0s0,0,0,0c0,0,0,0,0,0h0c-10.44,4.68-12.46-.6-12.46-.6-2.19-6.97,3.58-9.01,5.75-9.52.5-.12.88-.52.97-1.02.76-4.2-1.68-3.24-1.68-3.24,0,0-6.86,5.99-6.54,3.55.32-2.44,4.33-6.23,4.33-6.23-19.57,10.42-9.09,29.82-7.86,31.95,4.44-4.27,10.71-6.8,16.88-7.07.2,0,.4,0,.61-.01.2,0,.4,0,.61.01,6.17.27,12.44,2.79,16.88,7.07,1.23-2.13,11.71-21.54-7.86-31.95Z"/>
</svg>