<?xml version="1.0" encoding="UTF-8"?>
<svg id="Layer_1" data-name="Layer 1" xmlns="http://www.w3.org/2000/svg" viewBox="0 0 240 240">
  <defs>
    <style>
      .cls-1 {
        fill: #3390ac;
      }

      .cls-2 {
        fill: #181516;
      }
    </style>
  </defs>
  <g>
    <path class="cls-1" d="M155.57,78.84h-32.92v32.02c1.73-.77,3.43-1.28,5-1.46l1.24-2.7.07-.15.08-.14c.99-1.67,2.81-2.62,5.01-2.62h0c.41,0,.85.04,1.29.11v-12.37h19.43v70.99c0,13.35-7.99,24.85-19.43,30.02v-35.49c-3.44,2.58-7.38,4.89-11.14,6.47-.52.22-1.03.42-1.55.62v43.97c24.82-.42,44.81-20.66,44.81-45.59v-71.78c0-6.57-5.33-11.9-11.9-11.9Z"/>
    <path class="cls-1" d="M127.38,144.97l.05-.04c3.95-3.03,5.46-4.79,5.55-5.43.09-.64.3-2.14,2.1-3.27.09-.05.18-.1.27-.14v-1.84c-.48.24-.97.44-1.47.59-.61.18-1.28.27-2.01.27-2.03,0-4.46-.69-6.58-2.05.65.98,1.11,2.09,1.3,3.18l.03.14v.15c.15,1.56-.47,3.22-1.62,4.35-.75.74-1.55,1.17-2.25,1.49-.03.02-.06.04-.09.05v5.82c1.65-.95,3.26-2.06,4.68-3.23l.05-.04Z"/>
  </g>
  <g>
    <path class="cls-1" d="M84.68,78.84c-6.57,0-11.9,5.33-11.9,11.9v.78h23.22s8.9.01,8.9.01v34.04c.52-1,1.18-2,2-2.99.4-.49.83-.99,1.37-1.59,2.44-2.72,5.12-5.16,8.2-7.45l.06-.05h.02c.35-.26.7-.5,1.05-.73v-33.93h-32.92Z"/>
    <path class="cls-1" d="M108.74,152.67c.13-.02.25-.04.38-.06,2.64-.48,5.85-1.55,7.98-2.41.16-.07.33-.14.5-.21v-5.24c-1.86,1.35-4.02,3.07-5.92,4.84-1.18,1.1-2.18,2.16-2.94,3.09Z"/>
    <path class="cls-1" d="M113.94,170.3l-.83,1.8-1.98.05c-.21,0-.42,0-.64,0-2.26,0-4.11-.26-5.59-.79v21.17c-11.44-5.16-19.43-16.67-19.43-30.02v-19.72h-12.69v19.72c0,24.92,19.99,45.16,44.81,45.59v-42.8c-.52.15-1.04.29-1.56.42l-2.1,4.57Z"/>
    <path class="cls-1" d="M104.9,163.03l.13-.27s-.08-.04-.13-.06v.34Z"/>
  </g>
  <path class="cls-2" d="M136.59,138.76c-.23,0-.43.05-.61.16-1.11.7-.16,1.08-1.42,2.93-.79,1.15-2.43,2.88-5.99,5.6-1.94,1.61-4.27,3.15-6.7,4.41-.92.47-1.85.91-2.79,1.28-.21.08-.45.18-.69.27-2.1.8-5.18,1.83-7.91,2.32-1.07.19-2.08.3-2.93.3-.36,0-.69-.02-.98-.06-.37-.05-.65-.12-.87-.2-.36-.14-.53-.31-.63-.52-.21-.44-.09-1.34.63-2.61.08-.14.16-.27.25-.42.95-1.5,2.54-3.26,4.36-4.95,2.64-2.47,5.78-4.84,8.08-6.39.84-.57,1.57-1.03,2.12-1.33.53-.23.96-.47,1.35-.83.04-.03.08-.06.11-.1.44-.43.75-1.18.7-1.81-.12-.67-.41-1.35-.81-1.95-.77-1.17-1.96-2.05-3.22-2.05-.07,0-.14,0-.21,0-.01,0-.03,0-.05,0-.3.03-.64.05-.98.05-1.48,0-2.97-.38-1.59-2.16.63-.94,1.52-2.01,2.57-3.13,1.04-1.12,2.24-2.28,3.48-3.4,3.93-3.56,8.3-6.72,9.68-6.72.13,0,.23.03.3.08.53.4.11,2.26-3.13,6.02-1.62,1.88-3.72,3.27-5.39,3.84,1.68,3.06,5.38,4.53,7.75,4.53.42,0,.8-.05,1.12-.14.88-.26,1.66-.74,2.36-1.36,1.69-1.51,2.88-3.89,3.7-6.1,1.13-4.05-.11-6.85-1.85-8.77l2.3-4.99c-.78-1.82-2.5-3-4.14-3.43-.44-.11-.88-.18-1.29-.18-1,0-1.85.34-2.28,1.06l-2.08,4.52c-.25-.03-.51-.05-.78-.05-1.76,0-3.97.67-6.26,1.89-.9.48-1.81,1.04-2.71,1.69h0s0,0,0,0c-.26.2-.51.4-.76.6-2.58,1.99-4.88,4.09-6.97,6.42-.43.48-.86.97-1.28,1.48-1.65,2.01-2.46,3.87-2.61,5.56-.15,1.69.39,3.15,1.13,4.22.56.82,1.22,1.44,1.81,1.91-1.84,1.3-3.41,2.61-4.77,3.89-2.1,1.98-3.69,3.91-4.93,5.71-1.49,2.17-2.39,4.55-2.4,6.94,0,2.39.95,4.77,2.93,6.67,1.47,1.41,2.86,2.5,4.4,3.19.04.02.08.05.13.06l-.13.27-.78,1.71c-.59,1.47-.15,2.45.78,3.1,1.32.9,3.63,1.15,5.59,1.15.19,0,.38,0,.57,0l2.75-5.99c1.25-.26,2.52-.59,3.79-.99,1.16-.37,2.32-.8,3.48-1.28.11-.04.21-.08.32-.13,4.14-1.74,8.72-4.53,12.35-7.56,0,0,.01-.01.02-.02,1.8-1.51,3.37-3.09,4.53-4.67,1.16-1.59,1.92-3.21,1.95-4.91.03-1.78-2.75-4.68-4.45-4.68Z"/>
  <path class="cls-2" d="M58.63,8.2c2.86-.78,10.21,5,13.11,9.55.82,1.28,4.41,8.16,3.07,8.9-6.09,1.73-3.81-.2-6.96-5.34-4.93-8.04-11.24-8.74-11.65-9.38.81-1.24,1.62-2.48,2.43-3.72Z"/>
  <path class="cls-2" d="M180.96,8.2c2.06-.15,3.2,3.32,3.07,3.72-.32,1.04-10.42,3.01-13.43,16.02-1.62-.32-3.24-.65-4.85-.97-.02-5.64,5.58-13.16,10.03-16.18,1.73-.86,3.45-1.73,5.18-2.59Z"/>
  <path class="cls-2" d="M75.46,29.89c.42,8.29-.8,16.5-1.13,24.76-3.61,2-7.23,3.99-10.84,5.99-1.45-.2-2.6-5.89-2.43-7.28.44-3.58,7.45-5.82,6.8-10.36-1.62-2.91-3.24-5.83-4.85-8.74,1.31-.59,3.22.48,3.4.49,3.97.17,4.72-4.26,9.06-4.85Z"/>
  <path class="cls-2" d="M165.43,30.21c3.86.1,5.96,3.92,7.12,4.21,1.78-.16,3.56-.32,5.34-.49.98,1.53-4.81,7.45-4.53,10.36.29,3.02,7.11,6.41,6.47,13.59-.27.92-.54,1.83-.81,2.75-2.07.86-9.89-5.42-12.14-6.63.47-7.97-1.49-15.83-1.46-23.79Z"/>
  <path class="cls-2" d="M164.78,57.72c.65.22,1.29.43,1.94.65,2.64,2.32,5.29,4.64,7.93,6.96-1.4,1.17-11.25,10.16-12.14,9.55-.16-4.7-1.48-9.18-3.4-13.43,1.89-1.24,3.78-2.48,5.66-3.72Z"/>
  <path class="cls-2" d="M75.79,58.04c2.1,1.02,4.21,2.05,6.31,3.07-2.12,4.46-3.16,9.16-3.72,14.08-.69.47-10.83-8.73-12.14-9.87,3.18-2.43,6.36-4.85,9.55-7.28Z"/>
  <g>
    <path class="cls-2" d="M73.41,183.7c6.13,9.86,12.21,19.94,19.9,28.65-2.7.95-6.4,4.82-7.9,3.67-.85-2.07-1.69-4.14-2.54-6.21-1.98-3.29-3.95-6.59-5.93-9.88-.58-1.39-4.8-16.04-3.53-16.23Z"/>
    <path class="cls-2" d="M92.04,216.72c2.23-.39,7.04,11.97,5.79,18.49-1.11,5.78-5.14,2.85-5.36,2.26-.32-.86,1.66-3.23.85-8.75-.8-5.4-4.14-8.8-4.23-9.31.99-.89,1.98-1.79,2.96-2.68Z"/>
  </g>
  <g>
    <path class="cls-2" d="M66.8,142.52c.29,11.6.41,23.38,2.63,34.78-2.81-.55-7.96.91-8.67-.84.32-2.21.64-4.43.96-6.64-.03-3.84-.07-7.68-.1-11.52.2-1.49,4-16.26,5.19-15.78Z"/>
    <path class="cls-2" d="M66.11,180.43c2.12.8,0,13.89-4.39,18.87-3.89,4.42-5.87-.15-5.77-.77.16-.9,3.07-1.94,5.17-7.11,2.05-5.06.9-9.69,1.07-10.18,1.3-.27,2.61-.54,3.91-.81Z"/>
  </g>
  <g>
    <path class="cls-2" d="M173.2,142.52c-.29,11.6-.41,23.38-2.63,34.78,2.81-.55,7.96.91,8.67-.84-.32-2.21-.64-4.43-.96-6.64.03-3.84.07-7.68.1-11.52-.2-1.49-4-16.26-5.19-15.78Z"/>
    <path class="cls-2" d="M173.89,180.43c-2.12.8,0,13.89,4.39,18.87,3.89,4.42,5.87-.15,5.77-.77-.16-.9-3.07-1.94-5.17-7.11-2.05-5.06-.9-9.69-1.07-10.18-1.3-.27-2.61-.54-3.91-.81Z"/>
  </g>
  <g>
    <path class="cls-2" d="M168.25,182.57c1.04.16-3.8,16.45-3.81,17.92-1.98,3.39-3.95,6.77-5.93,10.16-3.92,7.39-.11,7.19-9.88,1.41,7.85-8.87,13.41-19.45,19.62-29.5Z"/>
    <path class="cls-2" d="M149.34,216.72c5.45,2.59,2.97,2.6,1.83,4.66-5.78,10.46-1.48,15.43-1.69,16.37-.16.7-4.8,3.76-5.65-3.39-.81-6.9,1.31-12.35,5.5-17.64Z"/>
  </g>
  <path class="cls-2" d="M119.47,40.24c-10.18.45-20.19,5.75-26.7,13.43-4.62,5.46-8.36,11.97-8.9,19.26,24.54.05,49.08.11,73.62.16-1.87-18.47-19.41-33.66-38.03-32.85Z"/>
  <path class="cls-2" d="M134.52,1s5.81,5.46,6.26,8.99c.46,3.53-9.45-5.12-9.45-5.12,0,0-3.52-1.39-2.43,4.68.13.72.69,1.3,1.4,1.47,3.14.74,11.48,3.69,8.31,13.76,0,0-2.92,7.62-18,.86h0s0,0,0,0c0,0,0,0,0,0h0c-15.08,6.76-18-.86-18-.86-3.17-10.07,5.17-13.02,8.31-13.76.72-.17,1.27-.74,1.4-1.47,1.09-6.07-2.43-4.68-2.43-4.68,0,0-9.9,8.65-9.45,5.12.46-3.53,6.26-8.99,6.26-8.99-28.27,15.05-13.13,43.07-11.35,46.16,6.41-6.18,15.47-9.82,24.38-10.21.29-.01.58-.01.88-.02.29,0,.58,0,.88.02,8.91.39,17.96,4.03,24.38,10.21,1.78-3.08,16.91-31.11-11.35-46.16Z"/>
</svg>