<?xml version="1.0" encoding="UTF-8"?>
<svg id="Layer_2" xmlns="http://www.w3.org/2000/svg" viewBox="0 0 1552 851.81">
  <defs>
    <style>
      .cls-1 {
        fill: #3390ab;
      }

      .cls-2 {
        fill: #231f20;
      }
    </style>
  </defs>
  <g id="Layer_1-2" data-name="Layer_1">
    <g>
      <g>
        <g>
          <path class="cls-1" d="M356.54,278.6h-117.81v114.6c6.19-2.77,12.27-4.58,17.88-5.22l4.45-9.67.24-.53.3-.5c3.53-5.96,10.06-9.38,17.93-9.38h0c1.48,0,3.03.14,4.62.4v-44.27h69.55v254.07c0,47.77-28.59,88.96-69.55,107.43v-127.01c-12.3,9.24-26.42,17.48-39.88,23.15-1.85.78-3.7,1.51-5.54,2.21v157.38c88.83-1.52,160.39-73.96,160.39-163.16v-256.91c0-23.52-19.06-42.58-42.58-42.58Z"/>
          <path class="cls-1" d="M255.64,515.29l.17-.13c14.15-10.86,19.53-17.15,19.85-19.42.33-2.29,1.09-7.67,7.53-11.72.31-.19.64-.34.96-.51v-6.57c-1.7.86-3.46,1.57-5.28,2.1-2.17.63-4.59.95-7.19.95-7.28,0-15.97-2.49-23.56-7.33,2.34,3.52,3.96,7.47,4.67,11.38l.09.52.05.52c.49,5.57-1.75,11.54-5.83,15.56-2.67,2.64-5.54,4.19-8.06,5.35-.1.06-.21.13-.31.18v20.83c5.91-3.41,11.66-7.36,16.74-11.57l.16-.14Z"/>
        </g>
        <path d="M288.58,493.04c-.81,0-1.55.18-2.18.58-3.96,2.49-.58,3.88-5.08,10.48-2.82,4.13-8.71,10.29-21.43,20.06-6.95,5.76-15.28,11.29-23.99,15.77-3.29,1.7-6.64,3.25-9.99,4.6-.76.3-1.6.63-2.45.96-7.52,2.88-18.54,6.53-28.31,8.29-3.82.69-7.44,1.07-10.48,1.07-1.29,0-2.47-.07-3.52-.21-1.33-.18-2.34-.43-3.11-.73-1.27-.49-1.91-1.13-2.25-1.85-.74-1.56-.33-4.79,2.25-9.35.28-.49.56-.98.88-1.5,3.4-5.36,9.1-11.65,15.61-17.73,9.46-8.84,20.7-17.32,28.93-22.86,3.01-2.03,5.63-3.67,7.6-4.78,1.88-.84,3.45-1.69,4.85-2.96.13-.12.27-.22.4-.34,1.56-1.54,2.69-4.21,2.49-6.49-.44-2.41-1.47-4.83-2.89-6.98-2.76-4.17-7.03-7.32-11.53-7.32-.25,0-.5,0-.75.03-.05,0-.11,0-.16.01-1.08.1-2.28.17-3.49.17-5.31,0-10.64-1.34-5.69-7.73,2.26-3.36,5.45-7.19,9.18-11.19,3.73-4,8.01-8.15,12.44-12.17,14.07-12.74,29.72-24.04,34.63-24.03.45,0,.81.1,1.07.3,1.88,1.45.39,8.09-11.19,21.56-5.79,6.73-13.31,11.69-19.3,13.74,6,10.94,19.25,16.2,27.74,16.2,1.52,0,2.88-.17,4.02-.5,3.15-.92,5.95-2.64,8.45-4.87,6.07-5.42,10.31-13.93,13.23-21.85,4.03-14.51-.39-24.52-6.61-31.38l8.21-17.86c-2.78-6.53-8.93-10.75-14.83-12.26-1.58-.41-3.15-.66-4.62-.66-3.58,0-6.63,1.22-8.16,3.81l-7.44,16.19c-.89-.11-1.83-.17-2.8-.17-6.31,0-14.22,2.39-22.4,6.78-3.22,1.73-6.47,3.73-9.69,6.06h0s-.01.01-.01.01c-.94.7-1.81,1.43-2.73,2.14-9.22,7.11-17.45,14.65-24.93,22.99-1.54,1.71-3.07,3.47-4.58,5.3-5.92,7.21-8.8,13.85-9.33,19.9-.53,6.05,1.41,11.26,4.04,15.11,2,2.93,4.36,5.16,6.46,6.84-6.57,4.66-12.2,9.33-17.09,13.94-7.5,7.07-13.22,13.99-17.64,20.43-5.33,7.78-8.57,16.29-8.59,24.85s3.39,17.07,10.47,23.86c5.26,5.05,10.25,8.95,15.76,11.43.15.07.3.16.45.23l-.45.98-2.81,6.11c-2.1,5.28-.55,8.78,2.81,11.08,4.71,3.24,13,4.11,19.99,4.11.69,0,1.36,0,2.02-.02l9.85-21.43c4.48-.91,9.01-2.11,13.55-3.55,4.14-1.32,8.3-2.86,12.44-4.57.38-.16.76-.29,1.14-.45,14.83-6.24,31.23-16.2,44.21-27.07.02-.02.05-.04.07-.06,6.46-5.41,12.07-11.04,16.2-16.71,4.15-5.69,6.87-11.48,6.98-17.57.12-6.37-9.85-16.74-15.92-16.74Z"/>
        <g>
          <path class="cls-1" d="M102.8,278.6c-23.52,0-42.58,19.06-42.58,42.58v2.79h83.12v.05h31.85v121.83c1.86-3.58,4.22-7.15,7.14-10.7,1.43-1.74,2.99-3.55,4.9-5.68,8.73-9.74,18.33-18.46,29.34-26.66l.23-.17.07-.04c1.24-.89,2.49-1.74,3.74-2.56v-121.44h-117.81Z"/>
          <path class="cls-1" d="M188.92,542.83c.45-.07.91-.15,1.37-.23,9.46-1.7,20.95-5.56,28.55-8.61.59-.24,1.18-.51,1.77-.76v-18.76c-6.67,4.84-14.39,10.97-21.18,17.31-4.21,3.93-7.8,7.72-10.51,11.05Z"/>
          <path class="cls-1" d="M207.52,605.94l-2.96,6.45-7.09.16c-.74.02-1.51.03-2.28.03-8.07,0-14.71-.93-19.99-2.82v75.77c-40.96-18.47-69.55-59.66-69.55-107.43v-70.59h-45.42v70.59c0,89.2,71.56,161.64,160.39,163.16v-153.17c-1.87.55-3.73,1.06-5.58,1.52l-7.51,16.35Z"/>
          <path class="cls-1" d="M175.19,579.92l.45-.98c-.15-.07-.3-.16-.45-.23v1.21Z"/>
        </g>
        <g>
          <path class="cls-2" d="M470.34,480.24c-4.01,0-7.17-3.15-7.17-7.17v-186.36c0-4.01,3.15-7.17,7.17-7.17h99.2c11.76,0,21.5,9.75,21.5,21.5v84.29c0,11.76-9.75,21.5-21.5,21.5h-60.5c-.86,0-1.43.57-1.43,1.43v64.8c0,4.01-3.15,7.17-7.17,7.17h-30.11ZM509.05,319.39c-.86,0-1.43.57-1.43,1.43v44.73c0,.86.57,1.43,1.43,1.43h37.56c.86,0,1.43-.57,1.43-1.43v-44.73c0-.86-.57-1.43-1.43-1.43h-37.56Z"/>
          <path class="cls-2" d="M630.02,480.24c-4.01,0-7.17-3.15-7.17-7.17v-186.36c0-4.01,3.15-7.17,7.17-7.17h97.77c4.01,0,7.17,3.15,7.17,7.17v25.52c0,4.01-3.15,7.17-7.17,7.17h-59.06c-.86,0-1.43.57-1.43,1.43v38.99c0,.86.57,1.43,1.43,1.43h41.29c4.01,0,7.17,3.15,7.17,7.17v22.65c0,4.01-3.15,7.17-7.17,7.17h-41.29c-.86,0-1.43.57-1.43,1.43v39.28c0,.86.57,1.43,1.43,1.43h59.06c4.01,0,7.17,3.15,7.17,7.17v25.52c0,4.01-3.15,7.17-7.17,7.17h-97.77Z"/>
          <path class="cls-2" d="M771.64,388.78c-4.01-.86-6.88-4.88-6.88-8.89v-78.85c0-11.76,9.75-21.5,21.5-21.5h75.12c11.75,0,21.5,9.75,21.5,21.5v22.08c0,4.3-2.58,8.31-6.59,10.04l-31.25,12.9c-3.15,1.43-6.59-.86-6.59-4.3v-20.93c0-.86-.57-1.43-1.43-1.43h-26.38c-.86,0-1.43.57-1.43,1.43v32.97c0,.86.57,1.43,1.43,1.72l66.52,15.77c4.01.86,6.88,4.87,6.88,8.89v78.56c0,11.76-9.75,21.5-21.5,21.5h-76.84c-11.76,0-21.5-9.75-21.5-21.5v-22.08c0-4.3,2.58-8.31,6.59-10.04l31.25-12.9c3.15-1.43,6.59.86,6.59,4.3v20.93c0,.86.57,1.43,1.43,1.43h28.1c.86,0,1.43-.57,1.43-1.43v-32.4c0-.86-.57-1.43-1.43-1.72l-66.52-16.06Z"/>
          <path class="cls-2" d="M915.84,319.39c-4.01,0-7.17-3.15-7.17-7.17v-25.52c0-4.01,3.15-7.17,7.17-7.17h115.83c4.01,0,7.17,3.15,7.17,7.17v25.52c0,4.01-3.15,7.17-7.17,7.17h-34.12c-.86,0-1.43.57-1.43,1.43v152.25c0,4.01-3.15,7.17-7.17,7.17h-30.1c-4.01,0-7.17-3.15-7.17-7.17v-152.25c0-.86-.57-1.43-1.43-1.43h-34.41Z"/>
        </g>
        <g>
          <path class="cls-2" d="M1092.53,310.6l-.13,4.07.51,3.18.64,2.29h2.29l.25,1.27.89-.64,1.02-.13,2.04.25,1.27-.51h5.09l1.02,1.14v-1.14l2.04.64h.76l.64-.64.89.38h3.95l.64.64,2.04-.64,3.06-.13,1.14,1.53,1.53,1.02-.38.89-.76.38.13,1.65-1.02.25-1.02-.13v1.27l-.76-.51-3.44.25-1.02-.51-1.4.76-.89-.38-.76.38-1.02-.38-1.27-.13-1.02.51-.64-.76-.89.38-1.27.13-1.02-.25-.64-.76-.51.76-.76.38-4.33-.25-.89.38-1.27-.76-.25.89-.89-.38-.89.13-2.16,1.78v2.29l-.89,2.55.89,1.65-.38.89.13,2.29-.38.89.51,1.78.13,2.04-.51,6.49.51,2.8-.25,1.78v4.07l-.25,2.42,4.71,1.27.76.38,2.67-1.02h1.27v.76l.89-.51,1.78.25,2.04-.51.76.76.76-.64,1.02-.13v1.15l.51-.51,1.02-.13.64.51,1.14-1.02.89-.13,5.86.64,1.02-.25,1.4.89.76-.89.76.38.76-.13.76-.51.89.38,2.55.25,1.02.38.38.89,1.27,1.4-.89,2.29h-.89l-.51.89-.64.51-3.82-.25-1.02.38-1.15-.51-1.65.51-4.71-.51-.64.51-5.09-.25-1.02.25-.76-.51-1.91.51-.89-.38-3.06.38-1.14-.76-1.4.76-.76-.76-3.44.51h-2.16l-.76-.25-.64.51-.76-.76h-3.69l-1.15-1.78-.25-.89.13-6.11-.38-2.29.64-1.15-.51-4.2.25-4.07-.13-3.95-.25-.89v-2.93l1.15-.38-.89-1.65v-1.14l.64-1.66-.51-.76-.13-1.91-.51-.89.51-1.91v-2.93l.38-.76-.51-2.29.25-1.02.76-.76-.89-.64.25-.89-.51-1.02.13-3.82.51-.89h-.89l.51-3.06.64-.64-.64-.51.13-.89-.38-2.67.51-2.04-.38-1.02.38-1.15-.38-.64.38-2.93-.51-4.2.51-2.16-.76-1.65.89-.38-.64-1.91,1.4-1.27v-.89l-.76.76-.51-.89-.13-2.42.51-1.02.51-2.16.38-.76,2.04-.25,1.02.25,1.78-.64,1.02-.13,4.33.25,1.91-.13.76-.38,1.14.51h1.02l1.15-.51.64.51,2.29.13,2.04-.64.64.64,1.65-.25.76.64.89-1.02.89.38,3.82.25,5.98-.38,2.04.51,1.4-.51,1.78.64,1.02-.13.89,1.4.76.51-.25,2.04h-.89l.51,1.4-1.02.13-1.4.89-.38-.51h-1.02l-.64.76-1.02-.51-2.42-.13-3.69.38-.89-.51-.89.51-3.06-.13-1.02.38-.51-1.02-1.91.64h-2.16l-.76-.64-1.02.38-2.29.38-.89-.38-4.2.51-1.02-.25-.76-.64-1.65.64-.89-.13-.76.64-1.14.25-.13,2.42-.76.64.51,1.65-.76.13-.76-.38-.89,1.02,1.02.25,1.4-.25-.76,1.65.51.64.89.25-.38,2.29.13,4.2-.38,1.78-.89-.13-.64.25.76.38,1.14-.38v2.29l-.89.64.89.64-.13,3.18-.51.64h.38ZM1086.93,284l.51.25.25-.51-.51-.25-.25.51ZM1088.07,345.36l-.38-.89-.76.13,1.14.76ZM1087.44,289.85l.89.25-.38-.64-.51.38ZM1087.69,305.64l.38-1.14h-.64l.25,1.14ZM1087.82,297.87h1.14l.51-.51-.89-.13-.76.64ZM1087.82,365.86l1.14-.38.51-.89,1.02-.64-1.14.38-.89.64-.64.89ZM1088.84,356.7l-.89-1.02.25.64.64.38ZM1088.84,343.96l-.76.25.51.38.25-.64ZM1088.07,360.9l1.02-.38,1.14-1.53-2.16.89v1.02ZM1088.33,307.04l.76-.25.25-.89-.76.25-.25.89ZM1088.33,311.5l.76-.38.25-.76-.76.38-.25.76ZM1088.33,332.38h.51l-.25-.64-.25.64ZM1088.84,358.48l.51-.64-1.02-.25.51.89ZM1088.58,291l1.15.25-.51-.64-.64.38ZM1089.48,294.31v-1.14l-.64-.64-.25,1.27.89.51ZM1089.35,318.37h.38l-.64-.25.25.25ZM1089.35,302.33l1.27.51-.64-1.65-.64,1.15ZM1089.35,314.3h1.53l-.76-.64-.76.64ZM1090.75,290.87l.89-1.27-1.15-.13-.25.76.51.64ZM1091.13,317.1l.25-.89-.38-.76-.76-.38.38,1.27.51.76ZM1090.75,320.66l.38-.51-.89-.89.51,1.4ZM1090.49,287.3h.38v-.51h-.38v.51ZM1090.49,363.45l.51.76v1.02l.64.64.89-1.65-.76-.38-.38-.89-.89.51ZM1091.39,300.42v-.64l-.64-.51-.13.76.76.38ZM1090.88,313.41l.64-.76-.38-.64-.51.89.25.51ZM1091.13,310.86l.25.64.76-.89-1.02.25ZM1093.93,326.78v-1.02l-.64-.64v.89l.64.76ZM1094.44,284.25l.25-.76-.76-.38.51,1.14ZM1096.99,365.99l1.53-.38-.76-.51-.76.89ZM1098,284l.25-1.4-.76.64.51.76ZM1098.9,364.85v.51l.25-.76-.25.25ZM1099.41,281.19v.51l.25-.76-.25.25ZM1100.55,365.61h1.15v-.51l-1.15.51ZM1103.61,280.3l-1.15-.51.51.89.64-.38ZM1105.01,281.7h1.02l-.51-.64-.51.64ZM1107.81,365.36l.51.25.25-.51-.51-.25-.25.51ZM1113.28,324.48v-1.02h-.76l.76,1.02ZM1115.58,323.72l-.13-.76-.76-.13.89.89ZM1115.19,324.61h.64l-.64-.38v.38ZM1118.38,323.97h.51v-.51h-.51v.51ZM1119.14,281.45l.64.64,1.02.51v-.64l-.76-.64-.89.13ZM1124.49,284l.64-.76.38-1.15-.89-.25-.76.25.64.89v1.02ZM1126.91,284.25l.89-.51h-.89v.51ZM1129.46,282.85h.51l-.76-.25.25.25Z"/>
          <path class="cls-2" d="M1154.04,294.94l.89,1.78-.13,1.02-.51.89.76.25-.38,1.02.38,1.14-.64.51.51,2.8-.64.64.64.89v1.14l-.64,1.02.76,1.91-.38.89.51,3.06-.13,1.02,1.91,1.78,1.91.51h1.27l.76,1.15,2.04.13.76.25.51.64,1.4-.76.89,1.14h2.16l1.02.38.64.64.89-.25,1.65.76.89-.25,1.91.89,2.16.64.89.51.51-.64.64.25v.89l1.02-.38h.89l1.91.64,1.65.89h1.02l1.15.38.89.64,1.02-.25,2.04.89,1.91.25,1.53,1.4.51,1.91-.25.89.76,1.02-.76.38.51.76.25,2.04-.25.89-.64.76.64.76-.25,4.2.76,2.8-.38.89.13,1.91h-.89v1.27l.89,1.65-.25.76.38,3.05-.64.89.25,1.14v2.16l-.51,3.95-1.15-.51.51,1.4-.51.89-.25,1.27-4.33,2.67-3.44.76-1.4-.64-.13.89-.89-.38-3.19.38-1.14-.25-.76.51-2.04-.89-1.65.89-.76-1.15-2.29.25-.25-1.02-.89-.13.38,1.4-3.82.25-.89-.25-.89.64-2.16-.25-2.04-.64-1.15.51-4.07-.38-1.14.25-1.27-1.02-.89.13-3.44-3.56.38-.64-1.15-1.02.51-1.14-1.02-.64v-12.22l.38-.64-.13-1.27.51-.89,1.66-.25.51-1.02,1.02.13.51-.51,1.4,1.4.38.76.64,4.84-.89.51.76,2.93-.13.89-.51.89.76,2.16v1.02l1.27,1.27,1.53.89-.51,1.15.76-.51,4.46-.13v.64l1.15-.25.76-.64,4.07.38h7.01v.51l.64-.89.89.38,1.78-.13.64.64.64-.64,1.91.89.76-1.15,3.44.25.76-.38,2.54-3.69-.64-.64.64-2.8-.13-1.27-.51-1.15.64-1.14-.64-1.15.25-1.14.64-.76-.64-1.91.13-1.02.51-.64-.64-1.91.25-2.42.64-.76-.51-1.02.25-1.15-.64-.25.38-1.91-1.78-3.18-2.17-.38-4.46-1.78-1.14.13-1.15-.25-.76-.76-2.8-.25.25-.76-.51-.38v.89l-1.66-.51-.89.25-1.02-1.15-.89.64-1.15-1.14h-2.04l-2.17-.38-1.78-.76-1.53-1.02-.51-.64-.38,1.02-1.02-.25-1.02.13-1.78-.76-1.27.13-.51-.89-.76-.25h-2.17l.13-1.27-2.42-.38-1.4-.89-.38-2.16v-1.91l-.38-2.8.89-.25-.51-2.16-.25-3.18.76-1.91h-1.14l.51-8.53v-4.07l.38-2.93-.64-.76,1.15-3.31-.25-1.14.76-.51.89-.13-.25-1.27,1.15-.51,1.4-1.78h1.27l.64-.64,2.29-.51.76.38,1.66-.38,5.34-.25.76.25.51.64.64-1.14.76.38,3.05-.25,1.15.13.89.51,2.93-.38.89.38.25-.51.64.64,1.27-.64.89.51.89-.51,4.45.38,1.02-.38.76.25.38.64.76-.38,3.69.89,1.78,2.55,1.02.51.51,2.54.76,2.04-.13.76-.64.25.89,2.16-.13,1.14.38,1.15-.51.89-.64.51.51.76.38,1.91-.13,1.91-1.27,2.54-.89.51-.51.89-.89-.76-1.02,1.02-1.02-.25-.76-.51.38-1.14-1.14-1.15.76-1.02-.38-1.53-.38-7.38.89-.25-.64-1.02-.76-2.16,1.65-1.02-.76-.51-1.14-.13-.64-.51-.76.76-.89.13-2.29-.25.89-.89-.89-.13-.51.89-4.33.13-1.15.25-.13-1.14-3.82,1.27-.89-.13-1.02-.64-.89.38-1.91-.25-.89.25-.25-1.14-.76,1.14-3.31-.25-1.15.25-.13-.89v.76h-1.02l-3.31.76-1.78,1.02-.76,3.69v3.18l-.76.25ZM1148.94,349.44l.76-.13-.25-.51-.51.64ZM1149.58,357.21l1.27-.25-.25-.76-.76.13-.25.89ZM1151.49,298l.76.25-.51-.76-.25.51ZM1152,352.49l.64,1.14-.89.51,1.91.25-.89-1.91h-.76ZM1151.75,362.81l.63.25-.38-.64-.25.38ZM1152.38,360.77l.51.25.25-.51-.51-.25-.25.51ZM1152.63,362.43h1.02l-.51-.76-.51.76ZM1152.89,365.23l.51.25-.51-.76v.51ZM1155.05,366.37v-.51l-.64.13.64.38ZM1155.31,364.08l.89-.38-.51-.64-.38,1.02ZM1157.09,319.14l1.27-.25-.13-1.02-.89-.38.25.76-.51.89ZM1157.85,320.79l.76-.25.13-.89h-.64l-.25,1.15ZM1158.36,365.86h.38v-.38h-.38v.38ZM1158.49,280.81l.76-.51h-.51l-.25.51ZM1161.16,320.79l-.64-.89-.76-.51.38,1.02,1.02.38ZM1165.37,285.01l.76-.25-.38-.64-.89-.25.51,1.14ZM1166.13,323.85l.64-.76.89-.38-.64-1.4h-.76l-.38,1.53.25,1.02ZM1166.13,363.83l1.4.25-.51-.64-.89.38ZM1168.17,368.03h.51v-.51h-.51v.51ZM1168.42,280.56h.51v-.51h-.51v.51ZM1169.19,284.12h.38v-.51h-.38v.51ZM1170.97,324.1l.76-.51h-.51l-.25.51ZM1171.22,364.46l.64.76.89-.13.89.38-.38-.89-1.02-.38-1.02.25ZM1172.62,283.61h1.02v-.64h-.76l-.25.64ZM1173.13,368.67h.51v.51h-.51v-.51ZM1174.28,281.96l1.02.25-.51-.64-.51.38ZM1175.94,365.86l-.25-.64h-.89l.38.89.76-.25ZM1176.82,366.63l.51.25.25-.51-.51-.25-.25.51ZM1178.74,366.12h.76l-.76-.51v.51ZM1180.64,365.23l.89-.38.25-1.02-.89-.25.13.89-.38.76ZM1182.56,364.97h.38v-.51h-.38v.51ZM1183.19,284.12h.51l.25-.51-.76-.25v.76ZM1185.99,281.7l-.51-.76-.89-.38.51.89.89.25ZM1185.1,284.38l.89-.25.51-.76-1.02.25-.38.76ZM1186.25,284.76l1.02.13.25-1.02-.76.25-.51.64ZM1191.21,362.43l-.25-.76-.89.76-1.66-1.27v.76l.76.64,1.15.38.89-.51ZM1188.92,329.45l1.4-.25-1.27-.64-.13.89ZM1190.32,288.83l-.13-.89-.89-.51.25.89.76.51ZM1189.81,285.27l.25,1.14.76-.38.13-1.02-1.15.25ZM1190.07,360.52h.64l-.13-.51h-.51v.51ZM1190.7,289.98h.25l.25-.13v-.38h-.51v.51ZM1191.47,288.32v-.76l-.51-.38.51,1.14ZM1190.96,298.26h.51v-.51h-.51v.51ZM1190.96,348.29l1.4.51-.38,1.14,1.4-1.02-1.91-1.4-.51.76ZM1190.96,355.55l.51.25.25-.51-.51-.25-.25.51ZM1191.98,361.03l.38-.76v-.51l-.89.51.51.76ZM1192.87,353.64l.25-1.78-.76.51v.76l.51.51ZM1192.87,343.58h.51v-.51h-.51v.51ZM1193.12,359.5l.64.25-.38-.64-.25.38Z"/>
          <path class="cls-2" d="M1254.51,280.17l1.02-.51.64-.64,2.16.64,1.15-.13,2.16,1.91.38.89-.25.76-.64.51v1.02l-1.02.38-.64.89h-4.71l-1.4.64-1.65-.64-2.04.25h-5.73l-2.04.38-1.4-.25-.25,1.15-1.02.76.51.89-.38,1.14-.13,2.04.25,1.78-.38,2.8.38,1.02-.38.76.38,1.78-.38,1.02.38.64-.89.89,1.15.51-.13,1.02-.76.38.51,2.16-.13,2.04-.89,1.65,1.15.25v11.33l-1.15.64-.76-.64v.76l.64.51.89-.38-.13,1.15.51,1.02-.38.89.64,1.65-.64,1.14.38,1.4-.64,2.29.13,1.02.51,1.02-.13,1.14.38,2.04v1.27l-1.02,2.8.51.64-.64.51.89,1.91-.38,1.91v2.04l.51,4.33-.13,2.04-.89.51,1.15,3.06-1.15.25.64,2.04-.64.51.64,1.02.25,2.04-.64,1.91-1.4,1.4-2.04.51-1.27-.25-.51-.89-.64-4.07-.64-1.66v-1.02l.76-.38-.64-1.02v-7.26l.51-1.65-.76-.25.51-.76.13-1.02-.25-1.91-.38-.76.76-1.14-.38-1.15-.13-1.91.25-3.56.64-.13-1.15-.76.38-3.95-.38-1.91.64-.64-.38-3.31.64-.76-.89-.51.38-1.65-.13-.89h.89l-.89-1.4.64-.89-.38-.89-.13-2.16.38-2.29-.51-2.04.51-.89-.38-.76-.13-1.91.25-3.31-.25-.89.38-1.65.13-3.06-.51-.64.38-1.65-.64-.76.38-1.15-.38-1.14.38-1.91-.13-3.44,1.4-1.02-.76-.64-1.14-1.78-.25-.89-1.02.13-1.02-.38.38-1.15-1.66,1.02-1.91.38-.89-.13-.89-.51-.89.25-2.17-.13-.76.51-1.78-.25-.76-.89-1.02.51-2.8.25-.89.38-2.67-1.27-.38-.51.51-.76-.64-.76.25-2.16.64-.76h1.14l1.91-.76,1.65.51.89-.38,4.46.38.76-.51.64.76,1.02-.38.63.38,1.02-.25.64-.51,2.16.38h7.52l.76-.38,1.91.13.76-.38.89.25.51.51,1.02-.38h1.27l2.04.64.76-.38,5.35-.13.89-.51,1.91.64.64.51ZM1213.12,283.1l.25-1.02-.64.38.38.64ZM1215.04,280.94h.51v-.51h-.51v.51ZM1216.94,285.14l.51-.89-.89.38.38.51ZM1217.2,283.49l1.91-.89-.51.76v.64l.89-.51,1.27-.25-1.27-1.4-1.15.13-.64.64-.51.89ZM1220.76,282.59l.89-.38.51-.76-.89.38-.51.76ZM1222.8,282.59l.76.25-.51-.76-.25.51ZM1225.22,283.1l-1.02-.25.51.64.51-.38ZM1225.35,284.89l.51.25.25-.51-.51-.13-.25.38ZM1226.37,283.1l1.4.76.51-.64-.76-.64-1.15.51ZM1227.26,281.45h.51l.25-.51-.76-.25v.76ZM1231.08,283.23l1.02-.25.51-.89-.38-.64-.51,1.02-.64.76ZM1233.62,333.78h.51v-.38h-.51v.38ZM1234.13,292.65l.64-.51-.25-1.78-.38,1.02v1.27ZM1234.13,329.83h.38l.25-.76h-.38l-.25.76ZM1234.39,339l.51-.13-.38-.13-.13.25ZM1234.52,284h.51l.25-.76h-.76v.76ZM1235.03,311.75l.51.25-.51-.76v.51ZM1235.54,305.38l.64-.51-.38-.64-.25,1.14ZM1236.42,306.78l-.89-.89.13.89h.76ZM1235.54,309.84l.64-.51h-.38l-.25.51ZM1235.54,347.66l.13.13,1.27-.64-.89-.13-.51.64ZM1235.54,353.77l.76-.38.38-.76-1.14-.25v1.4ZM1236.05,296.73h.38v-.51h-.38v.51ZM1236.05,345.75l1.4-.38-1.27-.51-.13.89ZM1236.68,297.87l.76-.25v-.76l-.76,1.02ZM1237.19,300.93h.64l-.64-.51v.51ZM1237.44,325.76l.64-.38h-.51l-.13.38ZM1238.34,286.54h.51v-.51h-.51v.51ZM1238.34,317.35h.51v-.89h-.51v.89ZM1249.16,281.58l.64-.38h-.38l-.25.38Z"/>
          <path class="cls-2" d="M1270.94,354.4l3.69-.64.51,1.15.89-.13,1.27,1.02-.38,1.15.12.89.51.89-.51,1.02.25,2.29-.51.89.51,1.14-.51.89v1.91l-1.4.89-2.93.89h-2.04l-2.04-.38-.51-1.02-.76-.76.13-2.04-.51-.64.89-2.04-1.15-.25.51-1.91.13-3.95,3.05-1.91.76.64ZM1270.17,361.54h.76l-.76-.51v.51Z"/>
        </g>
        <g>
          <path class="cls-2" d="M1125.38,416.25l-.76-1.65-.13-2.8-.51-.89.38-.89-.13-1.65,1.4.13-1.65-2.04.13-1.27-.25-1.02-1.91-2.16-6.11-.38-1.02.13-1.4-.76-.89.38-1.65.25-1.14-.13-1.4-2.55-.25,1.02.38,1.02-.64.51-.89.25-3.82-.38-1.02.13-.89.51-.64-1.02-2.04.76h-2.04l-.89-.25-1.66.89-1.4,1.27-.89,1.78-.25,1.02.38.64v3.82l-.38,1.91h-.76l.64.64.38.89.25,1.91-.13,2.16-.89.25.64.64-.51.89-.89.51-1.14.25-2.93-1.53-.76-.64-.25-.89.38-1.15-.64-1.4.51-1.15v-2.16l.38-.89-.89-.51.38-.76-.38-3.95.13-.89.51-.76-.38-.38.38-.89v-1.78l.89-1.91,2.93-2.67,2.55-1.53,1.02.51.89-.51,1.78-.13,1.91.25,2.16-.13.76.76,1.66-.89,1.02-.13.76.51.89-.38,2.04-.13.64.51,1.65-.64.89.89.89-.38,2.16-.25h4.2l1.02-.25-.25,1.14.89-.51h3.82l1.15-.25,1.91.76,4.07,2.8.25,2.04,1.27,2.67-.25,2.42.51.89-.51.64-.13,1.02.64.64-.25,1.91-.64.25.64.64-.13,1.65.25,1.02-.51.89.38,1.02-.38.89.64,1.14-.25,1.02.13.89-.51.64.64,4.97-.25,1.14-.64,1.02.25,1.02-.13,1.02.38,1.02-.38,1.78.13,1.27-1.53,3.95-.64.76-.89.51-1.02.13.25,1.14-1.02.51-.63.89h-1.15l-1.4,1.02-4.71.51-1.65.76h-.76l-.89-.38-1.65,1.14-4.2,1.02-.64.51-2.04-.25-1.02.25-.51-.76-1.53,1.53-.89.25-1.14-.38-1.65.89-2.93,1.02h-2.04l-1.4,1.65-1.15.38.25,1.02-.89,2.54.25,1.02-.25,2.16.38,1.02v5.48l-.64,2.29.51,1.91.13,2.29-.64,2.16.89,1.15-.13,1.02.25.89.51.64,1.65.89,1.91.64.51-1.02,1.91.13.64.64,1.02-.76.89.25,2.42-.13,1.02.25.76.89.25-1.02h8.4l5.22-.25,2.17.76,1.14-.76.76.51v.89l.51-.64,2.16-.51,1.15.13.64.64.64-.76,2.8,1.15-.38.89-.76.51,1.15-.13.51,1.15-1.66,2.54-1.91.25-.38.51h-8.02l-2.8-.51-1.02.25-1.15-.76-.38,1.27-1.91-.51h-1.91l-1.91.51-1.14-.76-2.29.76-1.53-1.02-1.15.76-2.42-.38-1.02-.38-1.91.51-.76-.25-1.65.76-.89-.38-5.86-.25-1.78-.64-1.14-1.53-.38-1.27.64-1.15-.89-2.54.51-.89-.38-3.05.76-.76-.64-1.27.64-.38.25-.76-.89-.89.25-1.78-.38-8.02.13-1.91.38-1.02-.13-.89.64-.38-.64-.64-.25-.89.89.25-.38-2.55,1.02-1.78.76-2.29h.76l.64-1.65,1.65-.89,1.27-1.15h1.78l.76-.64,1.91-.76,4.2-.76,1.91-.89,1.65.38.89-.51,2.16-.64.89-.51.76.51,1.15.25.89-1.15,1.4.38.76-.89,2.42.13.89-.64.89.51.51-1.15,2.54.51.51-1.27,1.15-.25,1.02-.64,1.27-1.53.51-1.02.76.38-.38-1.78-.38-4.97,1.4-.25-.89-1.65-.76-.51.25-1.02.76-.64-.51-.76-.13-.89.64-1.78-.89-2.16.38-.89.89.38ZM1087.06,464.5l.76-.38.25-.76-.76-.25-.25,1.4ZM1088.07,400.59h.38v-.51h-.38v.51ZM1088.07,402.24l1.91.38v-.89l-1.27-.13-.64.64ZM1088.07,414.59l.89.51v-.89l-.89.38ZM1088.07,477.62h.38v-.51h-.38v.51ZM1088.71,465.65l.25-.89-.64.38.38.51ZM1088.46,449.48l.64.76,1.02.13.13-1.15-.25-.76-.64.64-.89.38ZM1088.71,474.05l.38.64.89.13.25-.76-.51-.64-1.02.64ZM1089.73,452.54l.38-.76h-.76l.38.76ZM1090.11,463.36h.51v-.51h-.51v.51ZM1091.13,401.48l-.25-.76-.51-.38.13.76.64.38ZM1091.39,483.09h.38v-.51h-.38v.51ZM1093.42,398.93l.89-.64.25-1.02-.64-.25-.25,1.02-.25.89ZM1093.93,447.31l.13-.76-.64-.38.51,1.14ZM1095.59,444.77l.51.25.13-.51-.64.25ZM1095.84,480.04h.38v-.51h-.38v.51ZM1096.22,398.17l.76-.38.38-.76-.13-.76-.89.76-.13,1.14ZM1096.22,448.46l.51.25.25-.51-.51-.13-.25.38ZM1096.99,482.33l1.4-.13.89-.51-.64-.51-.89.64-.76.51ZM1097.88,398.42l.64,2.16,1.02.64-.25-.89-.64-.76.64-.64,1.02.25-.76-.76-1.15-.51-.51.51ZM1099.79,446.68l.51-1.02-.89.38.38.64ZM1102.59,443.75l.51.25-.25-.64-.25.38ZM1105.39,442.35l1.4-.25-.76-.64-.64.89ZM1105.39,482.58l.89-.13.51-.64h-1.02l-.38.76ZM1107.3,397.78h.51v-.51h-.51v.51ZM1108.32,443.37l.64-.25-.51-.25-.13.51ZM1108.45,481.18h.89l.76.51.51-1.27.89.51h.76l-.64-.76-1.02-.38-.64.64h-.89l-.64.76ZM1109.85,442.6h.51v-.51h-.51v.51ZM1111.12,444.01h.64l1.02-.38-.51-1.02-.64.76-.51.64ZM1114.18,443.37l-.13-1.02-.38-.64-.25,1.02.76.64ZM1114.81,480.04l1.02.13-1.02-.64v.51ZM1115.83,439.29h.64l-.64-.38v.38ZM1116.47,442.1l.25-.89h-.76l.51.89ZM1117.48,478.77h.38v-.38h-.38v.38ZM1117.87,439.55l.51,1.02,1.27-.51.13-1.02-.76.51h-1.15ZM1119.27,441.71l.25-.64-.51-.38.25,1.02ZM1120.54,440.69l.89-.25.25-.64-.76.38-.38.51ZM1120.93,482.33l1.14.51-.38-.89-.76.38ZM1122.07,438.4v-.76l-.63-.38.63,1.14ZM1123.09,437.51l.64.38.76-.25-.64-.64-.76.51ZM1123.98,439.8l.89-.64,1.27-.25-1.02-.76-.64.89-.51.76ZM1124.24,434.58h.51v-.38h-.51v.38ZM1124.49,400.08l.51-.38-.51-.38v.76ZM1125.13,405.04l1.65-.51-.64-.51-.64.38-.38.64ZM1125.13,428.47l.51.25-.25-.64-.25.38ZM1128.18,410.39l-.25-.89-.76-.64-1.02-.38,1.02,1.65,1.02.25ZM1126.65,416.12l.89-.76-.89-1.65-.25,1.78.25.64ZM1126.4,417.52h1.02l.76-.76.51.25-.51-.64-.89-.51-.25.76-.64.89ZM1126.4,426.82l1.15-.64h-.64l-.51.64ZM1126.78,433.95l.64-.76-.38-.64-.51.76.25.64ZM1126.65,403.13l.38.89,1.02.25.13-.76.51-.89-1.15.38-.89.13ZM1126.65,405.93l1.02.25.51-.89-1.02-.13-.51.76ZM1127.55,481.82l.13-.76-.64-.64-.13.89.64.51ZM1127.29,420.7l1.02-.25.64-.64-.89-.13-.76.38v.64ZM1127.55,413.06l.76.64,1.15-.25-.76-.64-1.15.25ZM1127.55,429.24l.76-.51-.51-.64-.25,1.14ZM1129.2,427.07l-.38-.76.38-1.78-1.02-.25-.13,1.15.25,1.14.89.51ZM1128.06,434.58l.89-.64-.76-.51-.13,1.14ZM1128.18,411.16h.51v-.51h-.51v.51ZM1129.2,428.98l.51.25.13-.51-.63.25Z"/>
          <path class="cls-2" d="M1173.65,483.47l-.76.76-.89.38-1.91-.13-.89-.38-.89.38-.76-.38-.76.38-2.29.13-.89-.25-.51-.51-1.02.76-.89-.76-1.02.25-.89-.64-1.15.25-1.78-.89-.64-.89-.25-.89-1.14-.38.51-1.02-.76.25-1.15-1.78-.51-1.91-.13-6.37-.25-1.02.51-1.66v-2.29l-.51-2.16.25-.76.64-.64-.38-2.04-.25-4.71.64-.25-.89-.25.25-2.04v-11.84l.64-.51-.38-1.02-.13-1.91.51-2.67-.89-1.78v-1.02l.64-.76-.89-.64.51-.89.64-2.42-.76-1.65v-.89l.51-1.91-.64-2.16.13-1.15.51-.64-.38-1.27.25-.89-.25-4.33.64-1.78-.89-.51.89-.64-.64-1.02v-4.84l1.66-1.27-.25-.38.38-.25-.13-1.02,1.02-1.4,1.78-.89-.51-.89,2.29-1.02.51.76,1.65-1.02,3.05-.38.76.64,1.15-.64h4.07l.89-.25,1.91.38h2.17l.89.25.63.51.64-.89,2.8.13.76.51.76-.89h3.44l1.66.64,1.91-.38,2.04.13,1.91.76,1.02-.76,3.31,1.65.64.76.25.89.89-.25.51,1.15.13,1.02.89.25v2.16l.63.76.51,2.04-.25,3.31.13,1.02.38.76-.64.76.64.64-1.27,1.02.51.76.25,1.02-.25,3.05.13.89.38.64-.76.89.51.89v1.78l.51.89-.51,1.02.25,2.8-.25.89-.76.64.38.76v1.78l.64.76-.13,1.02.38.64-.76.64.25,1.02-.25.89.38.89v.89l-.38.89.51,4.84-.76,1.02.25,1.91.76,2.04-.51.89v.89l-.51.76.51,1.02v.89l-.51,1.02,1.02.38-.51,1.91.25,1.91-.51,1.15.51,1.14-1.02,1.15.76,1.53v1.14h-1.65l.38.38h1.02l-.38,1.02.25,1.02.64.89-.25.89-.76.51.89,2.04-.13,1.15-.51.76.38,1.02.13,2.04-.63,1.91-2.04,2.16-.89.38.25,1.02-2.93,1.53-1.02.25-1.02-.25-1.14,1.02-1.66-.76-.89.38-3.95-.25-1.02.38-.51-.89-1.02.13-.64.76-1.66-.38-4.2.25-2.04-.13v-.89ZM1153.4,432.16l1.4-.38-.76-.13-.64.51ZM1153.66,402.88l.89-.51h-.89v.51ZM1155.06,412.68v-.76l-1.02-.38.38.76.64.38ZM1154.04,467.18l.64-.38-.64-.51v.89ZM1155.69,404.92l-.25-.89h-1.14l.64.51.76.38ZM1154.29,437.89l.76.25.63-.25-.89-.38-.51.38ZM1155.06,423.25l1.65-1.15h-1.4l-.25-.89-.38.89.38,1.15ZM1154.8,442.99h.51v-.38h-.51v.38ZM1155.06,415.99l.51-.13-.25-.13-.25.25ZM1157.35,432.93l-.51-.89-.13-1.02-1.02-.13-.63-.38.25,1.02.51.64,1.53.76ZM1155.69,440.44l.25-1.02,1.15-1.53-.76.25-.76.64-.25.89.38.76ZM1155.69,425.16v.51l.89-.25-.89-.25ZM1155.95,409.12h1.15l.25-.38h-1.02l-.38.38ZM1155.95,429.87l.89-.25-.13-.89-.76,1.15ZM1156.46,433.44l-.51.89v.89l.89-.38.64-.64.13-1.02-1.15.25ZM1156.71,405.17l.25.76.64-1.02-.89.25ZM1156.97,437.13l.64-.38-.51-.51-.13.89ZM1158.37,401.35l-1.02-.89v.89h1.02ZM1157.35,469.85h.51v-.51h-.51v.51ZM1171.23,401.86l-1.91-.64-5.85.64-.89-.25-1.66,1.27-.89.38-.13,1.14-2.04,1.65,1.65.25-.38.89v4.96l-.76,1.66.89,2.8-.64.76-.25.89.89,1.02-.25.89.13,3.18.38,1.27-.63.38-.38.64.76.64-.38,1.78.38.76-1.02.38-.64.64v.89l.89-.89.38,1.78v8.15l.38,2.04-.51.64v.89l.51,2.04-.13,1.02-.64.76.51,4.2-.13,3.95.38,4.33-.76,1.27.76,1.15-.38,7.64-.38.76.51.89v1.15l-.51.76.51,1.66,1.02.51.89,2.16,1.15-.51.64.76.64.13,1.65-.38h1.27l-.13.89.76-.38.76.13.76.51.76-1.02h3.05l1.15.25.38-.38,2.04.25h6.5l-.76.64.89-.13.76-.76,1.91.38,2.29-.13,1.91.38,2.04-.76,2.29-2.04-.25-1.14.76-1.65.13-3.06-.38-.89v-3.57l-.25-1.02.89.25-.25-.76.25-.89-.76-.64v-1.02l.76-2.04-.76-1.4.64-.89.13-.89-.76-2.93,1.27-1.14-1.27-1.65.25-2.29v-5.86l.76-3.18-.76-2.04v-1.14l.51-1.02-.76-.25.38-1.14-.51-1.91h.64l-.64-.89.38-1.02.51-.64-.76-3.05.25-2.93.64-.38.13-1.02-1.02-.38.51-.89-.13-1.66-.38-1.02h.76l-.89-2.16.38-.89-.38-.76.38-.89.25-1.78-.76-5.98.13-.89-1.02-.51-.51-.89h-.89l-.51-1.02-.89.51-1.91-.89-.64.51h-4.07l-.89.38-.89-.64-1.02-.25-.51.89-.89-.51h-2.93l-.76-.38-1.27.89-.64-.38h-1.02l-1.14.13ZM1160.4,402.11l.25-.89-1.4-.51.51.76.64.64ZM1160.91,400.2l-.89-.64.51.89,2.04-.25-1.02-.89-.64.89ZM1163.46,481.82l-1.15-.25.51.64.64-.38ZM1164.22,480.67h.38l-.13-.76-.25.76ZM1164.86,397.15l.51-.25-.51-.38v.64ZM1170.59,399.31l-.51-1.66h-.89l-.38-.64-.89-.25,1.15,1.53,1.53,1.02ZM1169.83,481.82h.89l.25-.51h-1.15v.51ZM1171.73,396.51l.25.89.64.51v-1.91l-.89.51ZM1172.63,482.97h.89l.25-.51h-1.15v.51ZM1174.79,481.82h.51v-.51h-.51v.51ZM1176.19,397.15v.76l1.91.38-.13-.64-.76-.64-1.02.13ZM1177.34,482.33v-.76h-.64l.64.76ZM1179.88,482.46h.51v-.38h-.51v.38ZM1180.14,479.91h.51l.25-.64h-.51l-.25.64ZM1181.16,398.8l.89-.51h-.89v.51ZM1184.47,396l.89.51h.89l-.76-.89-1.02.38ZM1184.47,397.66l.89.51.89-.25-1.15-.51-.64.25ZM1186.51,481.56l1.02-.13.38.64.76-.13.38-.64-.89-.51-1.02-.13-.64.89ZM1187.65,399.57l.63.13.38-.64-1.02.51ZM1189.05,397.4l.51.25-.51-.76v.51ZM1190.96,482.46h1.02l.38-.89.76-.76-1.15.25-.51-.38.25,1.02-.76.76ZM1191.22,397.91l.51.25h.89l.25-.76-.25-.64-.76.51-.64.64ZM1191.22,479.4l.25.89,1.14.13-.64-1.15-.76.13ZM1192.62,478l.76-1.14-.76.51v.64ZM1192.87,479.02l.76-.51h-.51l-.25.51ZM1194.27,402.37l.64-.25.25-.76-.64-.13-.25,1.14ZM1195.04,405.17l-.76,1.14,1.02.13,1.78-.51-1.02-.25-1.02-.51ZM1196.18,479.4l-1.65.25.51.64.89.13,2.16-3.82-.51-.38-1.4,2.42v.76ZM1195.04,457.37h.38v-.51h-.38v.51ZM1197.07,418.16l-.51.89-.89.25-.51.89h3.31l-.89-.64,1.15-1.4h-1.66ZM1195.42,460.18l1.14.38.76.76-.13-.89-.89-.64-.89.38ZM1195.68,401.35l.38.76v.89l.76.25.25-2.04-.76-.25-.63.38ZM1197.07,470.74l-.38,1.02.64.64.25-1.02,1.15-.25.76-.64-1.66.25-.51-.89h-1.65l.51.64.89.25ZM1196.18,429.11l.51-.25.13-.89-.76.51.12.64ZM1196.18,433.82v.89l.64.25.25-1.4-.89.25ZM1196.18,467.43l.51,1.65,1.02-.51.76-.89-1.4-.13-.89-.13ZM1198.09,425.67l-1.02-.64-.64.64.89-.13.51.76,1.02-.25.64-.64h-.64l-.76.25ZM1196.82,416.63l.51.25-.25-.64-.25.38ZM1196.82,438.53l.76-.51.25-1.15-.64.38.13.76-.51.51ZM1196.82,463.99l.76.38.25-.76-.51-.64-.51,1.02ZM1197.07,459.41l.64-.38-.13-.76-.51,1.14ZM1197.07,474.31h.76l-.76-1.02v1.02ZM1197.33,440.69l.76.25-.51-.76-.25.51ZM1198.73,432.16l-.13-.76-1.02-.38.38.76.76.38ZM1198.22,456.86v-.89l-.64.51.64.38ZM1197.84,415.74h.38v-.51h-.38v.51ZM1198.48,445.41v-.76h-.64l.64.76ZM1198.48,473.29v-.38h-.64l.64.38ZM1198.22,441.84l.51.25.25-.51-.51-.25-.25.51ZM1198.48,404.28h.51v-.51h-.51v.51ZM1198.73,459.67l.64-.38-.38-.51-.25.89ZM1198.73,467.43h.51v-.38h-.51v.38ZM1198.99,433.18l.51.25.25-.51-.51-.25-.25.51ZM1199.75,407.34h.38v-.51h-.38v.51Z"/>
          <path class="cls-2" d="M1262.53,416.25l-.76-1.65-.13-2.8-.51-.89.38-.89-.13-1.65,1.4.13-1.65-2.04.13-1.27-.25-1.02-1.91-2.16-6.11-.38-1.02.13-1.4-.76-.89.38-1.66.25-1.15-.13-1.4-2.55-.25,1.02.38,1.02-.64.51-.89.25-3.82-.38-1.02.13-.89.51-.63-1.02-2.04.76h-2.04l-.89-.25-1.66.89-1.4,1.27-.89,1.78-.25,1.02.38.64v3.82l-.38,1.91h-.76l.64.64.38.89.25,1.91-.13,2.16-.89.25.64.64-.51.89-.89.51-1.15.25-2.93-1.53-.76-.64-.25-.89.38-1.15-.63-1.4.51-1.15v-2.16l.38-.89-.89-.51.38-.76-.38-3.95.12-.89.51-.76-.38-.38.38-.89v-1.78l.89-1.91,2.93-2.67,2.55-1.53,1.02.51.89-.51,1.78-.13,1.91.25,2.17-.13.76.76,1.65-.89,1.02-.13.76.51.89-.38,2.04-.13.64.51,1.66-.64.89.89.89-.38,2.17-.25h4.2l1.02-.25-.25,1.14.89-.51h3.82l1.15-.25,1.91.76,4.07,2.8.25,2.04,1.27,2.67-.25,2.42.51.89-.51.64-.13,1.02.64.64-.25,1.91-.64.25.64.64-.13,1.65.25,1.02-.51.89.38,1.02-.38.89.64,1.14-.25,1.02.13.89-.51.64.64,4.97-.25,1.14-.64,1.02.25,1.02-.13,1.02.38,1.02-.38,1.78.13,1.27-1.53,3.95-.64.76-.89.51-1.02.13.25,1.14-1.02.51-.63.89h-1.15l-1.4,1.02-4.71.51-1.65.76h-.76l-.89-.38-1.65,1.14-4.2,1.02-.64.51-2.04-.25-1.02.25-.51-.76-1.53,1.53-.89.25-1.15-.38-1.65.89-2.93,1.02h-2.04l-1.4,1.65-1.14.38.25,1.02-.89,2.54.25,1.02-.25,2.16.38,1.02v5.48l-.64,2.29.51,1.91.13,2.29-.64,2.16.89,1.15-.13,1.02.25.89.51.64,1.65.89,1.91.64.51-1.02,1.91.13.64.64,1.02-.76.89.25,2.42-.13,1.02.25.76.89.25-1.02h8.4l5.22-.25,2.16.76,1.15-.76.76.51v.89l.51-.64,2.16-.51,1.15.13.64.64.64-.76,2.8,1.15-.38.89-.76.51,1.15-.13.51,1.15-1.66,2.54-1.91.25-.38.51h-8.02l-2.8-.51-1.02.25-1.15-.76-.38,1.27-1.91-.51h-1.91l-1.91.51-1.15-.76-2.29.76-1.53-1.02-1.15.76-2.42-.38-1.02-.38-1.91.51-.76-.25-1.66.76-.89-.38-5.85-.25-1.78-.64-1.15-1.53-.38-1.27.63-1.15-.89-2.54.51-.89-.38-3.05.76-.76-.63-1.27.63-.38.25-.76-.89-.89.25-1.78-.38-8.02.13-1.91.38-1.02-.13-.89.64-.38-.64-.64-.25-.89.89.25-.38-2.55,1.02-1.78.76-2.29h.76l.64-1.65,1.65-.89,1.27-1.15h1.78l.76-.64,1.91-.76,4.2-.76,1.91-.89,1.66.38.89-.51,2.16-.64.89-.51.76.51,1.14.25.89-1.15,1.4.38.76-.89,2.42.13.89-.64.89.51.51-1.15,2.54.51.51-1.27,1.14-.25,1.02-.64,1.27-1.53.51-1.02.76.38-.38-1.78-.38-4.97,1.4-.25-.89-1.65-.76-.51.25-1.02.76-.64-.51-.76-.13-.89.64-1.78-.89-2.16.38-.89.89.38ZM1224.2,464.5l.76-.38.25-.76-.76-.25-.25,1.4ZM1225.22,400.59h.38v-.51h-.38v.51ZM1225.22,402.24l1.91.38v-.89l-1.27-.13-.64.64ZM1225.22,414.59l.89.51v-.89l-.89.38ZM1225.22,477.62h.38v-.51h-.38v.51ZM1225.86,465.65l.25-.89-.63.38.38.51ZM1225.61,449.48l.63.76,1.02.13.13-1.15-.25-.76-.64.64-.89.38ZM1225.86,474.05l.38.64.89.13.25-.76-.51-.64-1.02.64ZM1226.88,452.54l.38-.76h-.76l.38.76ZM1227.26,463.36h.51v-.51h-.51v.51ZM1228.28,401.48l-.25-.76-.51-.38.13.76.64.38ZM1228.53,483.09h.38v-.51h-.38v.51ZM1230.57,398.93l.89-.64.25-1.02-.64-.25-.25,1.02-.25.89ZM1231.08,447.31l.13-.76-.64-.38.51,1.14ZM1232.74,444.77l.51.25.13-.51-.64.25ZM1232.99,480.04h.38v-.51h-.38v.51ZM1233.37,398.17l.76-.38.38-.76-.13-.76-.89.76-.13,1.14ZM1233.37,448.46l.51.25.25-.51-.51-.13-.25.38ZM1234.13,482.33l1.4-.13.89-.51-.64-.51-.89.64-.76.51ZM1235.03,398.42l.64,2.16,1.02.64-.25-.89-.64-.76.64-.64,1.02.25-.76-.76-1.15-.51-.51.51ZM1236.94,446.68l.51-1.02-.89.38.38.64ZM1239.74,443.75l.51.25-.25-.64-.25.38ZM1242.54,442.35l1.4-.25-.76-.64-.64.89ZM1242.54,482.58l.89-.13.51-.64h-1.02l-.38.76ZM1244.45,397.78h.51v-.51h-.51v.51ZM1245.47,443.37l.64-.25-.51-.25-.13.51ZM1245.6,481.18h.89l.76.51.51-1.27.89.51h.76l-.64-.76-1.02-.38-.64.64h-.89l-.64.76ZM1246.99,442.6h.51v-.51h-.51v.51ZM1248.27,444.01h.64l1.02-.38-.51-1.02-.64.76-.51.64ZM1251.32,443.37l-.13-1.02-.38-.64-.25,1.02.76.64ZM1251.96,480.04l1.02.13-1.02-.64v.51ZM1252.98,439.29h.64l-.64-.38v.38ZM1253.62,442.1l.25-.89h-.76l.51.89ZM1254.63,478.77h.38v-.38h-.38v.38ZM1255.02,439.55l.51,1.02,1.27-.51.13-1.02-.76.51h-1.15ZM1256.42,441.71l.25-.64-.51-.38.25,1.02ZM1257.69,440.69l.89-.25.25-.64-.76.38-.38.51ZM1258.07,482.33l1.14.51-.38-.89-.76.38ZM1259.22,438.4v-.76l-.64-.38.64,1.14ZM1260.24,437.51l.64.38.76-.25-.64-.64-.76.51ZM1261.13,439.8l.89-.64,1.27-.25-1.02-.76-.64.89-.51.76ZM1261.38,434.58h.51v-.38h-.51v.38ZM1261.64,400.08l.51-.38-.51-.38v.76ZM1262.28,405.04l1.65-.51-.64-.51-.63.38-.38.64ZM1262.28,428.47l.51.25-.25-.64-.25.38ZM1265.33,410.39l-.25-.89-.76-.64-1.02-.38,1.02,1.65,1.02.25ZM1263.8,416.12l.89-.76-.89-1.65-.25,1.78.25.64ZM1263.55,417.52h1.02l.76-.76.51.25-.51-.64-.89-.51-.25.76-.64.89ZM1263.55,426.82l1.15-.64h-.64l-.51.64ZM1263.93,433.95l.64-.76-.38-.64-.51.76.25.64ZM1263.8,403.13l.38.89,1.02.25.13-.76.51-.89-1.15.38-.89.13ZM1263.8,405.93l1.02.25.51-.89-1.02-.13-.51.76ZM1264.69,481.82l.13-.76-.64-.64-.13.89.64.51ZM1264.44,420.7l1.02-.25.64-.64-.89-.13-.76.38v.64ZM1264.69,413.06l.76.64,1.15-.25-.76-.64-1.15.25ZM1264.69,429.24l.76-.51-.51-.64-.25,1.14ZM1266.35,427.07l-.38-.76.38-1.78-1.02-.25-.13,1.15.25,1.14.89.51ZM1265.2,434.58l.89-.64-.76-.51-.13,1.14ZM1265.33,411.16h.51v-.51h-.51v.51ZM1266.35,428.98l.51.25.13-.51-.63.25Z"/>
          <path class="cls-2" d="M1332.44,472.27l1.53,2.55v.89l-.51.76.51,1.65.13,3.31-.76.51-1.78,2.29h-1.27l-1.91-.89-.89-1.4-.38-2.04.25-6.24-.51-.76.51-.89-.25-1.02,1.4-.89-1.66-.89.25-2.16-.25-.64.89-.76-.38-.89-.25-1.91v-3.82l-.25-.89.51-.51.89-.25-1.4-.64-.13-1.02-1.15-1.27-.38-.76-2.16.51-.38-1.02-.89.38h-2.04l-.64.64-.89-1.02-.76.76-2.8-.51-1.02.51-4.46-.51-.89.13-.76.64-1.78-1.02-1.65.64-6.37-.25-2.42.13-1.53-1.65-1.02.51-.63-.76-1.53-1.15-1.15-1.65-.25-1.14-1.4-2.16.63-2.55-.38-1.02,1.14-1.4h-1.53l.38-2.04.76-.51-1.02-.64.25-3.18-.64-1.78.64-1.02-.38-1.65.25-.89-.25-4.46.38-2.16.51-.89-.51-.89-.64-.51.51-3.82-.25-7.26.64-1.14-.89-1.91.64-1.14-.38-1.14.38-2.04-.25-2.04.13-2.16.38-1.15,1.02.13,2.29-1.27.51.76h.76l.76.38,1.02,1.65.13,1.02-.25,2.29-.76,1.4,1.15,1.27-.38.89.38.64-1.15,1.02.76.64.13.76-.38,2.93.38,1.02-.38,1.02-.13,1.78.51,1.91-.76,1.15.51,2.04v6.11l.25,4.33-.89,1.02.51.89-.13,2.04-.38,1.02.89.89-.25,2.04.51,2.04-.64,3.18.38.76.89.51-.38.89,2.29,1.4,2.93.13,1.53.89,1.91-1.02v.76l.76-.38,2.16-.13,5.73.25.76-.25,1.15.51.76-.76,1.4,1.02,2.04-.64h1.02l.64.64.76-.51,4.33-.64.89-.38.64-.89-.25-1.14.89-.51-.64-1.15.38-.76-.13-2.93.64-.51-.38-.89-.76-.51.51-1.02v-1.15l.38-1.14-.51-1.91.51-.64-.25-1.27.13-1.02-.51-1.02.25-.89-.25-3.05.13-1.02.51-.89-.51-1.02.13-2.93-.51-1.02.64-.76.13-2.8.64-.38-.89-.76-.25-2.29.13-1.02.51-.64-.38-1.91v-9.17l1.78-1.65,1.02.51.89-1.02,1.91.51v1.02l.76.38.51,4.33-.13,1.14-.38.89.64.89-.64,2.67.64.89-.51,1.91.38,4.33-.38.76.51,1.65-.89.51.89.51v1.65l-1.91.89,1.65.25.25,2.29-.38,3.18.38,1.02-.38,1.02-.13,2.04.25,1.27-.89.25.89.64-.25,1.02.51,2.16-.51,1.02.76.76-.64,2.04-.51.89-1.02.38,1.27.64.38,3.18.76,1.78.64.76,3.56.64,1.4-.64.51.89,1.91-.51.38.64,1.4,1.14.51,1.02-.38.64-.76.13.13,1.15-.51.76-1.53,1.14-4.83-.13-1.78.64-.64.76-1.02,3.18.38,1.14-.51,2.16.38,3.95-.63,2.42.89,2.29-.51.89-.63.51.51.64.89.13-1.02.64-.89-.64ZM1288.51,424.27l.64-.51h-.38l-.25.51ZM1288.76,439.29l.38.64.51-.64h-.89ZM1289.02,402.88h.38l-.25-.64-.13.64ZM1290.16,420.32h.51v-.51h-.51v.51ZM1290.8,419.18l.64-.38.13-.89h-.76v1.27ZM1291.06,397.78h.51v-.51h-.51v.51ZM1292.08,411.79h.38v-.38h-.38v.38ZM1292.08,418.16l.63-.25-.51-.25-.13.51ZM1292.2,401.48h.51l-.25-.64-.25.64ZM1292.46,446.17h.51l-.76-.25.25.25ZM1292.46,409.76l.63-.76-.38-.64-.25,1.4ZM1296.02,451.26l.76-.38.38-.76-.89.25-.25.89ZM1303.79,451.26l.76-.25.38-.89-.89.25-.25.89ZM1308.25,451.52l-.38-2.04-.51-.76v2.29l.89.51ZM1308.5,450.12h.51v-.38h-.51v.38ZM1311.56,452.03l-.76.25.51.38.25-.64ZM1317.67,452.03l.51.25.13-.51-.64.25ZM1321.87,451.13h.76l-.51-1.02-.25,1.02ZM1322.38,452.66l.38-.89-.64-.25.25,1.15ZM1329.38,402.37l-.63.25.38.38.25-.64ZM1328.87,445.41h.51l-.25-.64-.25.64ZM1329.12,413.95h.51v-.51h-.51v.51ZM1329.63,404.79h.64l.13-1.14-.25.76-.51.38ZM1329.63,411.16h.51v-.51h-.51v.51ZM1329.63,426.69l.89-.76-.64-.25-.25,1.02ZM1329.63,454.19h1.15l-.64-.64-.51.64ZM1329.89,422.87l.76-.25.13-.89-.76.25-.13.89ZM1329.89,434.2h.89l.64-.64.38-1.02-.25-.76-.38,1.02-.64.76-.64.64ZM1330.14,457.37h.38v-.38h-.38v.38ZM1330.4,477.11l.89-.13.64-.51-1.02-.13-.76-.64.25,1.4ZM1330.4,419.3h.38l-.38-.64v.64ZM1330.4,428.47h.64l-.64-.38v.38ZM1330.4,436.24l.64.25-.51-.64-.13.38ZM1330.53,475.33l.76-.38.51-.89-.89.38-.38.89ZM1330.78,400.59l1.02-.51-1.02-.25v.76ZM1331.29,425.29l.13-.64-.64-.38.51,1.02ZM1331.8,452.28v.38l.13-.64-.13.25ZM1332.44,449.86l.89.25.51-1.78-.38-.76-1.02,1.27v1.02ZM1334.6,450.62h.38v-.51h-.38v.51ZM1335.24,448.46l.51.25.25-.51-.51-.13-.25.38ZM1340.46,450.37v.51l.25-.76-.25.25Z"/>
        </g>
        <g>
          <path class="cls-2" d="M484.39,738.14c-11.76,0-21.5-9.75-21.5-21.5v-157.69c0-11.76,9.75-21.5,21.5-21.5h80.85c11.76,0,21.5,9.75,21.5,21.5v33.54c0,4.3-2.58,8.31-6.59,10.04l-31.25,12.9c-3.15,1.43-6.6-.86-6.6-4.3v-32.4c0-.86-.57-1.43-1.43-1.43h-32.11c-.86,0-1.43.57-1.43,1.43v118.13c0,.86.57,1.43,1.43,1.43h32.11c.86,0,1.43-.57,1.43-1.43v-32.4c0-3.44,3.44-5.73,6.6-4.3l31.25,12.9c4.01,1.72,6.59,5.73,6.59,10.04v33.54c0,11.76-9.75,21.5-21.5,21.5h-80.85Z"/>
          <path class="cls-2" d="M640.35,738.14c-11.76,0-21.5-9.75-21.5-21.5v-157.69c0-11.76,9.75-21.5,21.5-21.5h86.01c11.76,0,21.5,9.75,21.5,21.5v157.69c0,11.76-9.75,21.5-21.5,21.5h-86.01ZM664.72,577.3c-.86,0-1.43.57-1.43,1.43v118.13c0,.86.57,1.43,1.43,1.43h37.27c.86,0,1.43-.57,1.43-1.43v-118.13c0-.86-.57-1.43-1.43-1.43h-37.27Z"/>
          <path class="cls-2" d="M886.9,738.14c-4.3,0-8.31-2.58-10.04-6.59l-47.02-109.24c-.29-.57-.57-.29-.57,0v108.66c0,4.01-3.15,7.17-7.17,7.17h-30.11c-4.01,0-7.17-3.15-7.17-7.17v-186.36c0-4.01,3.15-7.17,7.17-7.17h30.68c4.3,0,8.31,2.58,10.04,6.59l47.02,109.52c.29.57.57.29.57,0v-108.95c0-4.01,3.15-7.17,7.17-7.17h30.1c4.01,0,7.17,3.15,7.17,7.17v186.36c0,4.01-3.15,7.17-7.17,7.17h-30.68Z"/>
          <path class="cls-2" d="M958.27,577.3c-4.01,0-7.17-3.15-7.17-7.17v-25.52c0-4.01,3.15-7.17,7.17-7.17h115.83c4.01,0,7.17,3.15,7.17,7.17v25.52c0,4.01-3.15,7.17-7.17,7.17h-34.12c-.86,0-1.43.57-1.43,1.43v152.25c0,4.01-3.15,7.17-7.17,7.17h-30.1c-4.01,0-7.17-3.15-7.17-7.17v-152.25c0-.86-.57-1.43-1.43-1.43h-34.41Z"/>
          <path class="cls-2" d="M1114.8,738.14c-4.01,0-7.17-3.15-7.17-7.17v-186.36c0-4.01,3.15-7.17,7.17-7.17h100.06c11.76,0,21.5,9.75,21.5,21.5v84.01c0,11.76-9.75,21.5-21.5,21.5h-5.16c-.57,0-1.15.57-.86,1.15l35.84,66.23c1.72,2.87-.57,6.31-3.73,6.31h-32.11c-4.3,0-8.6-2.58-10.61-6.31l-35.84-66.23c-.28-.57-1.14-1.15-2.01-1.15h-6.88c-.86,0-1.43.57-1.43,1.43v65.08c0,4.01-3.15,7.17-7.17,7.17h-30.11ZM1153.5,577.3c-.86,0-1.43.57-1.43,1.43v44.44c0,.86.57,1.43,1.43,1.43h38.42c.86,0,1.44-.57,1.44-1.43v-44.44c0-.86-.57-1.43-1.44-1.43h-38.42Z"/>
          <path class="cls-2" d="M1295.41,738.14c-11.76,0-21.5-9.75-21.5-21.5v-157.69c0-11.76,9.75-21.5,21.5-21.5h86.02c11.76,0,21.5,9.75,21.5,21.5v157.69c0,11.76-9.75,21.5-21.5,21.5h-86.02ZM1319.79,577.3c-.86,0-1.44.57-1.44,1.43v118.13c0,.86.57,1.43,1.44,1.43h37.27c.86,0,1.44-.57,1.44-1.43v-118.13c0-.86-.57-1.43-1.44-1.43h-37.27Z"/>
          <path class="cls-2" d="M1447.06,738.14c-4.01,0-7.17-3.15-7.17-7.17v-186.36c0-4.01,3.16-7.17,7.17-7.17h30.1c4.01,0,7.17,3.15,7.17,7.17v152.24c0,.86.57,1.43,1.43,1.43h59.06c4.01,0,7.17,3.15,7.17,7.17v25.52c0,4.01-3.15,7.17-7.17,7.17h-97.77Z"/>
        </g>
        <path d="M9.59,25.78c10.25-2.79,36.54,17.9,46.91,34.17,2.92,4.58,15.79,29.19,11,31.85-21.79,6.2-13.63-.71-24.9-19.11C24.96,43.9,2.36,41.42.9,39.1c2.9-4.44,5.79-8.88,8.69-13.32Z"/>
        <path d="M447.4,25.78c7.39-.53,11.45,11.89,11,13.32-1.15,3.73-37.3,10.77-48.07,57.33-5.79-1.16-11.58-2.32-17.37-3.47-.06-20.17,19.99-47.11,35.91-57.91,6.18-3.09,12.35-6.18,18.53-9.27Z"/>
        <path d="M69.82,103.38c1.52,29.66-2.87,59.04-4.05,88.61-12.93,7.14-25.87,14.28-38.8,21.43-5.18-.72-9.3-21.08-8.69-26.06,1.57-12.8,26.66-20.85,24.32-37.06-5.79-10.42-11.58-20.85-17.37-31.27,4.69-2.12,11.53,1.71,12.16,1.74,14.21.6,16.89-15.23,32.43-17.37Z"/>
        <path d="M391.81,104.54c13.8.35,21.33,14.05,25.48,15.06,6.37-.58,12.74-1.16,19.11-1.74,3.49,5.49-17.22,26.65-16.22,37.06,1.04,10.82,25.46,22.96,23.16,48.65-.97,3.28-1.93,6.56-2.9,9.85-7.4,3.07-35.39-19.4-43.43-23.74,1.68-28.52-5.33-56.65-5.21-85.13Z"/>
        <path d="M389.49,202.99c2.32.77,4.63,1.54,6.95,2.32,9.46,8.3,18.92,16.6,28.38,24.9-5,4.18-40.25,36.35-43.43,34.17-.59-16.81-5.29-32.85-12.16-48.07,6.76-4.44,13.51-8.88,20.27-13.32Z"/>
        <path d="M70.98,204.15c7.53,3.67,15.06,7.34,22.59,11-7.59,15.97-11.32,32.8-13.32,50.38-2.47,1.68-38.75-31.25-43.43-35.33,11.39-8.69,22.78-17.37,34.17-26.06Z"/>
        <g>
          <path d="M62.48,653.88c21.96,35.27,43.7,71.37,71.22,102.54-9.65,3.41-22.91,17.26-28.29,13.13-3.03-7.41-6.06-14.82-9.09-22.22-7.07-11.79-14.14-23.57-21.21-35.36-2.08-4.98-17.16-57.42-12.63-58.09Z"/>
          <path d="M129.16,772.07c8-1.4,25.2,42.85,20.71,66.17-3.98,20.7-18.39,10.2-19.19,8.08-1.16-3.07,5.95-11.55,3.03-31.32-2.85-19.32-14.81-31.51-15.15-33.34,3.54-3.2,7.07-6.4,10.61-9.6Z"/>
        </g>
        <g>
          <path d="M38.81,506.5c1.04,41.53,1.48,83.67,9.4,124.49-10.04-1.96-28.49,3.26-31.04-3.02,1.14-7.92,2.29-15.84,3.43-23.77-.12-13.74-.24-27.49-.36-41.23.73-5.35,14.32-58.2,18.57-56.47Z"/>
          <path d="M36.35,642.18c7.6,2.85,0,49.71-15.7,67.53-13.93,15.82-21.03-.53-20.64-2.77.56-3.24,10.98-6.94,18.49-25.46,7.34-18.1,3.21-34.67,3.84-36.42,4.67-.96,9.34-1.93,14.01-2.89Z"/>
        </g>
        <g>
          <path d="M401.91,649.84c3.73.56-13.59,58.88-13.64,64.15-7.07,12.12-14.14,24.24-21.21,36.37-14.02,26.45-.41,25.72-35.36,5.05,28.1-31.75,48-69.62,70.21-105.57Z"/>
          <path d="M334.23,772.07c19.52,9.29,10.63,9.31,6.57,16.67-20.69,37.43-5.31,55.22-6.06,58.59-.56,2.52-17.19,13.45-20.2-12.12-2.91-24.7,4.69-44.2,19.7-63.14Z"/>
        </g>
      </g>
      <path d="M227.34,140.45c-36.43,1.59-72.27,20.57-95.55,48.07-16.55,19.54-29.91,42.86-31.85,68.92,87.83.19,175.67.39,263.5.58-6.68-66.11-69.45-120.48-136.09-117.56Z"/>
      <path d="M281.19,0s20.78,19.56,22.41,32.18c1.63,12.63-33.81-18.33-33.81-18.33,0,0-12.61-4.99-8.69,16.74.47,2.59,2.46,4.65,5.03,5.26,11.23,2.65,41.07,13.21,29.74,49.24,0,0-10.47,27.27-64.43,3.09h0s0,0,0,0c0,0,0,0,0,0h0c-53.96,24.18-64.43-3.09-64.43-3.09-11.33-36.04,18.51-46.6,29.74-49.24,2.56-.6,4.56-2.67,5.03-5.26,3.91-21.73-8.69-16.74-8.69-16.74,0,0-35.44,30.96-33.81,18.33,1.63-12.63,22.41-32.18,22.41-32.18-101.17,53.85-46.99,154.16-40.63,165.19,22.96-22.1,55.36-35.14,87.25-36.54,1.05-.05,2.09-.04,3.14-.06,1.05.02,2.09.01,3.14.06,31.9,1.4,64.3,14.44,87.25,36.54,6.36-11.03,60.53-111.34-40.63-165.19Z"/>
    </g>
  </g>
</svg>