<?xml version="1.0" encoding="UTF-8"?>
<svg id="Layer_2" data-name="Layer 2" xmlns="http://www.w3.org/2000/svg" viewBox="0 0 356.74 195.79">
  <defs>
    <style>
      .cls-1 {
        fill: #3390ac;
      }

      .cls-2 {
        fill: #fff;
      }
    </style>
  </defs>
  <g id="Layer_1-2" data-name="Layer 1">
    <g>
      <g>
        <g>
          <path class="cls-1" d="M81.95,64.04h-27.08v26.34c1.42-.64,2.82-1.05,4.11-1.2l1.02-2.22.06-.12.07-.12c.81-1.37,2.31-2.16,4.12-2.16h0c.34,0,.7.03,1.06.09v-10.18h15.99v58.4c0,10.98-6.57,20.45-15.99,24.69v-29.19c-2.83,2.12-6.07,4.02-9.17,5.32-.43.18-.85.35-1.27.51v36.17c20.42-.35,36.87-17,36.87-37.5v-59.05c0-5.41-4.38-9.79-9.79-9.79Z"/>
          <path class="cls-1" d="M58.76,118.44l.04-.03c3.25-2.5,4.49-3.94,4.56-4.46.07-.53.25-1.76,1.73-2.69.07-.04.15-.08.22-.12v-1.51c-.39.2-.8.36-1.21.48-.5.15-1.06.22-1.65.22-1.67,0-3.67-.57-5.42-1.69.54.81.91,1.72,1.07,2.62l.02.12v.12c.12,1.28-.39,2.65-1.33,3.58-.61.61-1.27.96-1.85,1.23-.02.01-.05.03-.07.04v4.79c1.36-.78,2.68-1.69,3.85-2.66l.04-.03Z"/>
        </g>
        <path class="cls-2" d="M66.33,113.33c-.19,0-.36.04-.5.13-.91.57-.13.89-1.17,2.41-.65.95-2,2.37-4.93,4.61-1.6,1.32-3.51,2.59-5.51,3.62-.76.39-1.53.75-2.3,1.06-.17.07-.37.14-.56.22-1.73.66-4.26,1.5-6.51,1.91-.88.16-1.71.25-2.41.25-.3,0-.57-.02-.81-.05-.31-.04-.54-.1-.72-.17-.29-.11-.44-.26-.52-.42-.17-.36-.08-1.1.52-2.15.06-.11.13-.22.2-.34.78-1.23,2.09-2.68,3.59-4.07,2.18-2.03,4.76-3.98,6.65-5.26.69-.47,1.29-.84,1.75-1.1.43-.19.79-.39,1.11-.68.03-.03.06-.05.09-.08.36-.35.62-.97.57-1.49-.1-.55-.34-1.11-.66-1.6-.63-.96-1.62-1.68-2.65-1.68-.06,0-.11,0-.17,0-.01,0-.03,0-.04,0-.25.02-.52.04-.8.04-1.22,0-2.45-.31-1.31-1.78.52-.77,1.25-1.65,2.11-2.57.86-.92,1.84-1.87,2.86-2.8,3.23-2.93,6.83-5.52,7.96-5.52.1,0,.19.02.25.07.43.33.09,1.86-2.57,4.95-1.33,1.55-3.06,2.69-4.44,3.16,1.38,2.51,4.43,3.72,6.38,3.72.35,0,.66-.04.92-.11.72-.21,1.37-.61,1.94-1.12,1.39-1.25,2.37-3.2,3.04-5.02.93-3.34-.09-5.64-1.52-7.21l1.89-4.11c-.64-1.5-2.05-2.47-3.41-2.82-.36-.09-.72-.15-1.06-.15-.82,0-1.52.28-1.88.88l-1.71,3.72c-.21-.03-.42-.04-.64-.04-1.45,0-3.27.55-5.15,1.56-.74.4-1.49.86-2.23,1.39h0s0,0,0,0c-.22.16-.42.33-.63.49-2.12,1.63-4.01,3.37-5.73,5.28-.35.39-.71.8-1.05,1.22-1.36,1.66-2.02,3.18-2.15,4.57-.12,1.39.32,2.59.93,3.47.46.67,1,1.19,1.49,1.57-1.51,1.07-2.8,2.14-3.93,3.2-1.72,1.63-3.04,3.21-4.05,4.7-1.23,1.79-1.97,3.74-1.97,5.71s.78,3.92,2.41,5.49c1.21,1.16,2.36,2.06,3.62,2.63.03.02.07.04.1.05l-.1.22-.65,1.4c-.48,1.21-.13,2.02.65,2.55,1.08.74,2.99.94,4.6.94.16,0,.31,0,.46,0l2.26-4.93c1.03-.21,2.07-.48,3.12-.82.95-.3,1.91-.66,2.86-1.05.09-.04.17-.07.26-.1,3.41-1.43,7.18-3.72,10.16-6.22,0,0,.01,0,.02-.01,1.48-1.24,2.77-2.54,3.72-3.84.95-1.31,1.58-2.64,1.6-4.04.03-1.46-2.26-3.85-3.66-3.85Z"/>
        <g>
          <path class="cls-1" d="M23.63,64.04c-5.41,0-9.79,4.38-9.79,9.79v.64h19.11s7.32.01,7.32.01v28c.43-.82.97-1.64,1.64-2.46.33-.4.69-.81,1.13-1.3,2.01-2.24,4.21-4.24,6.74-6.13l.05-.04h.02c.28-.22.57-.41.86-.6v-27.91h-27.08Z"/>
          <path class="cls-1" d="M43.43,124.77c.1-.02.21-.03.31-.05,2.17-.39,4.82-1.28,6.56-1.98.13-.05.27-.12.41-.17v-4.31c-1.53,1.11-3.31,2.52-4.87,3.98-.97.9-1.79,1.77-2.42,2.54Z"/>
          <path class="cls-1" d="M47.7,139.28l-.68,1.48-1.63.04c-.17,0-.35,0-.52,0-1.86,0-3.38-.21-4.6-.65v17.42c-9.41-4.25-15.99-13.71-15.99-24.69v-16.23h-10.44v16.23c0,20.5,16.45,37.15,36.87,37.5v-35.21c-.43.13-.86.24-1.28.35l-1.73,3.76Z"/>
          <path class="cls-1" d="M40.27,133.3l.1-.22s-.07-.04-.1-.05v.28Z"/>
        </g>
        <g>
          <path class="cls-2" d="M108.11,110.39c-.92,0-1.65-.73-1.65-1.65v-42.84c0-.92.73-1.65,1.65-1.65h22.8c2.7,0,4.94,2.24,4.94,4.94v19.38c0,2.7-2.24,4.94-4.94,4.94h-13.91c-.2,0-.33.13-.33.33v14.89c0,.92-.73,1.65-1.65,1.65h-6.92ZM117.01,73.41c-.2,0-.33.13-.33.33v10.28c0,.2.13.33.33.33h8.63c.2,0,.33-.13.33-.33v-10.28c0-.2-.13-.33-.33-.33h-8.63Z"/>
          <path class="cls-2" d="M144.81,110.39c-.92,0-1.65-.73-1.65-1.65v-42.84c0-.92.73-1.65,1.65-1.65h22.47c.92,0,1.65.73,1.65,1.65v5.87c0,.92-.73,1.65-1.65,1.65h-13.58c-.2,0-.33.13-.33.33v8.96c0,.2.13.33.33.33h9.49c.92,0,1.65.73,1.65,1.65v5.21c0,.92-.73,1.65-1.65,1.65h-9.49c-.2,0-.33.13-.33.33v9.03c0,.2.13.33.33.33h13.58c.92,0,1.65.73,1.65,1.65v5.87c0,.92-.73,1.65-1.65,1.65h-22.47Z"/>
          <path class="cls-2" d="M177.37,89.36c-.92-.2-1.58-1.12-1.58-2.04v-18.12c0-2.7,2.24-4.94,4.94-4.94h17.27c2.7,0,4.94,2.24,4.94,4.94v5.07c0,.99-.59,1.91-1.52,2.31l-7.18,2.97c-.72.33-1.52-.2-1.52-.99v-4.81c0-.2-.13-.33-.33-.33h-6.06c-.2,0-.33.13-.33.33v7.58c0,.2.13.33.33.4l15.29,3.62c.92.2,1.58,1.12,1.58,2.04v18.06c0,2.7-2.24,4.94-4.94,4.94h-17.66c-2.7,0-4.94-2.24-4.94-4.94v-5.07c0-.99.59-1.91,1.52-2.31l7.18-2.97c.73-.33,1.52.2,1.52.99v4.81c0,.2.13.33.33.33h6.46c.2,0,.33-.13.33-.33v-7.45c0-.2-.13-.33-.33-.4l-15.29-3.69Z"/>
          <path class="cls-2" d="M210.51,73.41c-.92,0-1.65-.73-1.65-1.65v-5.87c0-.92.73-1.65,1.65-1.65h26.62c.92,0,1.65.73,1.65,1.65v5.87c0,.92-.73,1.65-1.65,1.65h-7.84c-.2,0-.33.13-.33.33v34.99c0,.92-.73,1.65-1.65,1.65h-6.92c-.92,0-1.65-.73-1.65-1.65v-34.99c0-.2-.13-.33-.33-.33h-7.91Z"/>
        </g>
        <g>
          <path class="cls-2" d="M251.12,71.39l-.03.94.12.73.15.53h.53l.06.29.21-.15.23-.03.47.06.29-.12h1.17l.23.26v-.26l.47.15h.18l.15-.15.21.09h.91l.15.15.47-.15.7-.03.26.35.35.23-.09.21-.18.09.03.38-.23.06-.23-.03v.29l-.18-.12-.79.06-.23-.12-.32.18-.2-.09-.18.09-.23-.09-.29-.03-.23.12-.15-.18-.2.09-.29.03-.23-.06-.15-.18-.12.18-.18.09-1-.06-.21.09-.29-.18-.06.2-.21-.09-.2.03-.5.41v.53l-.21.59.21.38-.09.21.03.53-.09.2.12.41.03.47-.12,1.49.12.64-.06.41v.94l-.06.56,1.08.29.18.09.61-.23h.29v.18l.2-.12.41.06.47-.12.18.18.18-.15.23-.03v.26l.12-.12.23-.03.15.12.26-.23.21-.03,1.35.15.23-.06.32.21.18-.21.18.09.18-.03.18-.12.2.09.59.06.23.09.09.2.29.32-.21.53h-.2l-.12.2-.15.12-.88-.06-.23.09-.26-.12-.38.12-1.08-.12-.15.12-1.17-.06-.23.06-.18-.12-.44.12-.2-.09-.7.09-.26-.18-.32.18-.18-.18-.79.12h-.5l-.18-.06-.15.12-.18-.18h-.85l-.26-.41-.06-.2.03-1.4-.09-.53.15-.26-.12-.97.06-.94-.03-.91-.06-.2v-.67l.26-.09-.21-.38v-.26l.15-.38-.12-.18-.03-.44-.12-.21.12-.44v-.67l.09-.18-.12-.53.06-.23.18-.18-.21-.15.06-.2-.12-.23.03-.88.12-.2h-.2l.12-.7.15-.15-.15-.12.03-.21-.09-.61.12-.47-.09-.23.09-.26-.09-.15.09-.67-.12-.97.12-.5-.18-.38.2-.09-.15-.44.32-.29v-.21l-.18.18-.12-.21-.03-.56.12-.23.12-.5.09-.18.47-.06.23.06.41-.15.23-.03,1,.06.44-.03.18-.09.26.12h.23l.26-.12.15.12.53.03.47-.15.15.15.38-.06.18.15.21-.23.2.09.88.06,1.38-.09.47.12.32-.12.41.15.23-.03.2.32.18.12-.06.47h-.21l.12.32-.23.03-.32.2-.09-.12h-.23l-.15.18-.23-.12-.56-.03-.85.09-.21-.12-.2.12-.7-.03-.23.09-.12-.23-.44.15h-.5l-.18-.15-.23.09-.53.09-.21-.09-.97.12-.23-.06-.18-.15-.38.15-.21-.03-.18.15-.26.06-.03.56-.18.15.12.38-.18.03-.18-.09-.21.23.23.06.32-.06-.18.38.12.15.21.06-.09.53.03.97-.09.41-.2-.03-.15.06.18.09.26-.09v.53l-.2.15.2.15-.03.73-.12.15h.09ZM249.84,65.28l.12.06.06-.12-.12-.06-.06.12ZM250.1,79.38l-.09-.2-.18.03.26.18ZM249.95,66.62l.2.06-.09-.15-.12.09ZM250.01,70.25l.09-.26h-.15l.06.26ZM250.04,68.47h.26l.12-.12-.21-.03-.18.15ZM250.04,84.1l.26-.09.12-.21.23-.15-.26.09-.21.15-.15.2ZM250.28,81.99l-.21-.23.06.15.15.09ZM250.28,79.06l-.18.06.12.09.06-.15ZM250.1,82.96l.23-.09.26-.35-.5.2v.23ZM250.16,70.58l.18-.06.06-.2-.18.06-.06.2ZM250.16,71.6l.18-.09.06-.18-.18.09-.06.18ZM250.16,76.4h.12l-.06-.15-.06.15ZM250.28,82.4l.12-.15-.23-.06.12.21ZM250.22,66.89l.26.06-.12-.15-.15.09ZM250.42,67.65v-.26l-.15-.15-.06.29.21.12ZM250.39,73.18h.09l-.15-.06.06.06ZM250.39,69.49l.29.12-.15-.38-.15.26ZM250.39,72.24h.35l-.18-.15-.18.15ZM250.72,66.86l.21-.29-.26-.03-.06.18.12.15ZM250.8,72.89l.06-.2-.09-.18-.18-.09.09.29.12.18ZM250.72,73.71l.09-.12-.21-.21.12.32ZM250.66,66.04h.09v-.12h-.09v.12ZM250.66,83.54l.12.18v.23l.15.15.2-.38-.18-.09-.09-.2-.21.12ZM250.86,69.05v-.15l-.15-.12-.03.18.18.09ZM250.74,72.04l.15-.18-.09-.15-.12.2.06.12ZM250.8,71.45l.06.15.18-.21-.23.06ZM251.45,75.11v-.23l-.15-.15v.21l.15.18ZM251.56,65.34l.06-.18-.18-.09.12.26ZM252.15,84.13l.35-.09-.18-.12-.18.2ZM252.38,65.28l.06-.32-.18.15.12.18ZM252.59,83.86v.12l.06-.18-.06.06ZM252.71,64.63v.12l.06-.18-.06.06ZM252.97,84.04h.26v-.12l-.26.12ZM253.67,64.43l-.26-.12.12.2.15-.09ZM253.99,64.75h.23l-.12-.15-.12.15ZM254.64,83.98l.12.06.06-.12-.12-.06-.06.12ZM255.9,74.59v-.23h-.18l.18.23ZM256.42,74.41l-.03-.18-.18-.03.21.21ZM256.33,74.61h.15l-.15-.09v.09ZM257.07,74.47h.12v-.12h-.12v.12ZM257.24,64.69l.15.15.23.12v-.15l-.18-.15-.21.03ZM258.47,65.28l.15-.18.09-.26-.2-.06-.18.06.15.21v.23ZM259.03,65.34l.21-.12h-.21v.12ZM259.61,65.01h.12l-.17-.06.06.06Z"/>
          <path class="cls-2" d="M265.26,67.79l.21.41-.03.23-.12.2.18.06-.09.23.09.26-.15.12.12.64-.15.15.15.21v.26l-.15.23.18.44-.09.2.12.7-.03.23.44.41.44.12h.29l.18.26.47.03.18.06.12.15.32-.18.21.26h.5l.23.09.15.15.21-.06.38.18.21-.06.44.21.5.15.21.12.12-.15.15.06v.2l.23-.09h.21l.44.15.38.21h.23l.26.09.2.15.23-.06.47.21.44.06.35.32.12.44-.06.21.18.23-.18.09.12.18.06.47-.06.21-.15.18.15.18-.06.97.18.64-.09.2.03.44h-.21v.29l.21.38-.06.18.09.7-.15.21.06.26v.5l-.12.91-.26-.12.12.32-.12.2-.06.29-1,.61-.79.18-.32-.15-.03.21-.2-.09-.73.09-.26-.06-.18.12-.47-.21-.38.21-.18-.26-.53.06-.06-.23-.21-.03.09.32-.88.06-.21-.06-.21.15-.5-.06-.47-.15-.26.12-.94-.09-.26.06-.29-.23-.21.03-.79-.82.09-.15-.26-.23.12-.26-.23-.15v-2.81l.09-.15-.03-.29.12-.21.38-.06.12-.23.23.03.12-.12.32.32.09.18.15,1.11-.21.12.18.67-.03.2-.12.21.18.5v.23l.29.29.35.2-.12.26.18-.12,1.02-.03v.15l.26-.06.17-.15.94.09h1.61v.12l.15-.21.2.09.41-.03.15.15.15-.15.44.21.18-.26.79.06.18-.09.58-.85-.15-.15.15-.64-.03-.29-.12-.26.15-.26-.15-.26.06-.26.15-.18-.15-.44.03-.23.12-.15-.15-.44.06-.56.15-.18-.12-.23.06-.26-.15-.06.09-.44-.41-.73-.5-.09-1.02-.41-.26.03-.26-.06-.18-.18-.64-.06.06-.18-.12-.09v.21l-.38-.12-.21.06-.23-.26-.21.15-.26-.26h-.47l-.5-.09-.41-.18-.35-.23-.12-.15-.09.23-.23-.06-.23.03-.41-.18-.29.03-.12-.21-.18-.06h-.5l.03-.29-.56-.09-.32-.2-.09-.5v-.44l-.09-.64.21-.06-.12-.5-.06-.73.18-.44h-.26l.12-1.96v-.94l.09-.67-.15-.18.26-.76-.06-.26.18-.12.21-.03-.06-.29.26-.12.32-.41h.29l.15-.15.53-.12.18.09.38-.09,1.23-.06.18.06.12.15.15-.26.18.09.7-.06.26.03.2.12.67-.09.21.09.06-.12.15.15.29-.15.21.12.21-.12,1.02.09.23-.09.18.06.09.15.18-.09.85.2.41.59.23.12.12.58.18.47-.03.18-.15.06.21.5-.03.26.09.26-.12.2-.15.12.12.18.09.44-.03.44-.29.58-.21.12-.12.21-.2-.18-.23.23-.23-.06-.18-.12.09-.26-.26-.26.17-.23-.09-.35-.09-1.7.2-.06-.15-.23-.17-.5.38-.23-.18-.12-.26-.03-.15-.12-.18.18-.21.03-.53-.06.21-.2-.21-.03-.12.21-1,.03-.26.06-.03-.26-.88.29-.2-.03-.23-.15-.21.09-.44-.06-.2.06-.06-.26-.18.26-.76-.06-.26.06-.03-.2v.18h-.23l-.76.18-.41.23-.18.85v.73l-.18.06ZM264.09,80.32l.18-.03-.06-.12-.12.15ZM264.24,82.11l.29-.06-.06-.18-.18.03-.06.21ZM264.68,68.5l.17.06-.12-.18-.06.12ZM264.79,81.02l.15.26-.2.12.44.06-.21-.44h-.18ZM264.74,83.39l.15.06-.09-.15-.06.09ZM264.88,82.93l.12.06.06-.12-.12-.06-.06.12ZM264.94,83.31h.23l-.12-.18-.12.18ZM265,83.95l.12.06-.12-.18v.12ZM265.5,84.21v-.12l-.15.03.15.09ZM265.55,83.69l.2-.09-.12-.15-.09.23ZM265.96,73.36l.29-.06-.03-.23-.21-.09.06.18-.12.2ZM266.14,73.74l.18-.06.03-.21h-.15l-.06.26ZM266.26,84.1h.09v-.09h-.09v.09ZM266.29,64.55l.18-.12h-.12l-.06.12ZM266.9,73.74l-.15-.21-.17-.12.09.23.23.09ZM267.87,65.51l.18-.06-.09-.15-.21-.06.12.26ZM268.04,74.44l.15-.18.21-.09-.15-.32h-.18l-.09.35.06.23ZM268.04,83.63l.32.06-.12-.15-.21.09ZM268.51,84.59h.12v-.12h-.12v.12ZM268.57,64.49h.12v-.12h-.12v.12ZM268.74,65.31h.09v-.12h-.09v.12ZM269.15,74.5l.18-.12h-.12l-.06.12ZM269.21,83.77l.15.18.2-.03.21.09-.09-.21-.23-.09-.23.06ZM269.53,65.19h.23v-.15h-.18l-.06.15ZM269.65,84.74h.12v.12h-.12v-.12ZM269.92,64.81l.23.06-.12-.15-.12.09ZM270.3,84.1l-.06-.15h-.21l.09.2.18-.06ZM270.5,84.27l.12.06.06-.12-.12-.06-.06.12ZM270.94,84.15h.18l-.18-.12v.12ZM271.38,83.95l.21-.09.06-.23-.21-.06.03.21-.09.18ZM271.82,83.89h.09v-.12h-.09v.12ZM271.96,65.31h.12l.06-.12-.18-.06v.18ZM272.61,64.75l-.12-.18-.21-.09.12.21.21.06ZM272.4,65.37l.21-.06.12-.18-.23.06-.09.18ZM272.67,65.45l.23.03.06-.23-.18.06-.12.15ZM273.81,83.31l-.06-.18-.21.18-.38-.29v.18l.18.15.26.09.21-.12ZM273.28,75.73l.32-.06-.29-.15-.03.2ZM273.6,66.39l-.03-.2-.21-.12.06.2.18.12ZM273.49,65.57l.06.26.18-.09.03-.23-.26.06ZM273.54,82.87h.15l-.03-.12h-.12v.12ZM273.69,66.65h.06l.06-.03v-.09h-.12v.12ZM273.87,66.27v-.18l-.12-.09.12.26ZM273.75,68.56h.12v-.12h-.12v.12ZM273.75,80.06l.32.12-.09.26.32-.23-.44-.32-.12.18ZM273.75,81.73l.12.06.06-.12-.12-.06-.06.12ZM273.98,82.98l.09-.18v-.12l-.21.12.12.18ZM274.19,81.29l.06-.41-.17.12v.18l.12.12ZM274.19,78.97h.12v-.12h-.12v.12ZM274.25,82.63l.15.06-.09-.15-.06.09Z"/>
          <path class="cls-2" d="M288.36,64.4l.23-.12.15-.15.5.15.26-.03.5.44.09.2-.06.18-.15.12v.23l-.23.09-.15.21h-1.08l-.32.15-.38-.15-.47.06h-1.32l-.47.09-.32-.06-.06.26-.23.18.12.2-.09.26-.03.47.06.41-.09.64.09.23-.09.18.09.41-.09.23.09.15-.21.2.26.12-.03.23-.18.09.12.5-.03.47-.21.38.26.06v2.6l-.26.15-.18-.15v.18l.15.12.21-.09-.03.26.12.23-.09.21.15.38-.15.26.09.32-.15.53.03.23.12.23-.03.26.09.47v.29l-.23.64.12.15-.15.12.21.44-.09.44v.47l.12,1-.03.47-.21.12.26.7-.26.06.15.47-.15.12.15.23.06.47-.15.44-.32.32-.47.12-.29-.06-.12-.2-.15-.94-.15-.38v-.23l.18-.09-.15-.23v-1.67l.12-.38-.18-.06.12-.18.03-.23-.06-.44-.09-.18.18-.26-.09-.26-.03-.44.06-.82.15-.03-.26-.18.09-.91-.09-.44.15-.15-.09-.76.15-.18-.21-.12.09-.38-.03-.21h.21l-.21-.32.15-.21-.09-.2-.03-.5.09-.53-.12-.47.12-.21-.09-.18-.03-.44.06-.76-.06-.2.09-.38.03-.7-.12-.15.09-.38-.15-.18.09-.26-.09-.26.09-.44-.03-.79.32-.23-.18-.15-.26-.41-.06-.21-.23.03-.23-.09.09-.26-.38.23-.44.09-.21-.03-.21-.12-.2.06-.5-.03-.18.12-.41-.06-.18-.21-.23.12-.64.06-.21.09-.61-.29-.09-.12.12-.18-.15-.18.06-.5.15-.18h.26l.44-.18.38.12.21-.09,1.02.09.18-.12.15.18.23-.09.15.09.23-.06.15-.12.5.09h1.73l.17-.09.44.03.18-.09.21.06.12.12.23-.09h.29l.47.15.18-.09,1.23-.03.21-.12.44.15.15.12ZM278.84,65.07l.06-.23-.15.09.09.15ZM279.28,64.58h.12v-.12h-.12v.12ZM279.72,65.54l.12-.21-.21.09.09.12ZM279.78,65.16l.44-.21-.12.18v.15l.21-.12.29-.06-.29-.32-.26.03-.15.15-.12.21ZM280.6,64.96l.21-.09.12-.18-.21.09-.12.18ZM281.07,64.96l.18.06-.12-.18-.06.12ZM281.62,65.07l-.23-.06.12.15.12-.09ZM281.65,65.48l.12.06.06-.12-.12-.03-.06.09ZM281.89,65.07l.32.18.12-.15-.17-.15-.26.12ZM282.09,64.69h.12l.06-.12-.18-.06v.18ZM282.97,65.1l.23-.06.12-.21-.09-.15-.12.23-.15.18ZM283.56,76.72h.12v-.09h-.12v.09ZM283.67,67.27l.15-.12-.06-.41-.09.23v.29ZM283.67,75.81h.09l.06-.18h-.09l-.06.18ZM283.73,77.92l.12-.03-.09-.03-.03.06ZM283.76,65.28h.12l.06-.18h-.18v.18ZM283.88,71.66l.12.06-.12-.18v.12ZM284,70.19l.15-.12-.09-.15-.06.26ZM284.2,70.52l-.2-.2.03.2h.17ZM284,71.22l.15-.12h-.09l-.06.12ZM284,79.91l.03.03.29-.15-.2-.03-.12.15ZM284,81.32l.17-.09.09-.18-.26-.06v.32ZM284.11,68.2h.09v-.12h-.09v.12ZM284.11,79.47l.32-.09-.29-.12-.03.2ZM284.26,68.47l.18-.06v-.18l-.18.23ZM284.38,69.17h.15l-.15-.12v.12ZM284.43,74.88l.15-.09h-.12l-.03.09ZM284.64,65.86h.12v-.12h-.12v.12ZM284.64,72.95h.12v-.2h-.12v.2ZM287.13,64.72l.15-.09h-.09l-.06.09Z"/>
          <path class="cls-2" d="M292.13,81.46l.85-.15.12.26.21-.03.29.23-.09.26.03.2.12.21-.12.23.06.53-.12.21.12.26-.12.21v.44l-.32.2-.67.21h-.47l-.47-.09-.12-.23-.18-.18.03-.47-.12-.15.21-.47-.26-.06.12-.44.03-.91.7-.44.18.15ZM291.96,83.1h.18l-.18-.12v.12Z"/>
        </g>
        <g>
          <path class="cls-2" d="M258.68,95.68l-.18-.38-.03-.64-.12-.21.09-.21-.03-.38.32.03-.38-.47.03-.29-.06-.23-.44-.5-1.4-.09-.23.03-.32-.18-.21.09-.38.06-.26-.03-.32-.59-.06.23.09.23-.15.12-.21.06-.88-.09-.23.03-.2.12-.15-.23-.47.18h-.47l-.2-.06-.38.2-.32.29-.2.41-.06.23.09.15v.88l-.09.44h-.18l.15.15.09.2.06.44-.03.5-.21.06.15.15-.12.2-.21.12-.26.06-.67-.35-.18-.15-.06-.2.09-.26-.15-.32.12-.26v-.5l.09-.2-.21-.12.09-.18-.09-.91.03-.2.12-.18-.09-.09.09-.2v-.41l.2-.44.67-.61.59-.35.23.12.21-.12.41-.03.44.06.5-.03.18.18.38-.2.23-.03.18.12.2-.09.47-.03.15.12.38-.15.21.21.2-.09.5-.06h.97l.23-.06-.06.26.21-.12h.88l.26-.06.44.18.94.64.06.47.29.61-.06.56.12.21-.12.15-.03.23.15.15-.06.44-.15.06.15.15-.03.38.06.23-.12.21.09.23-.09.21.15.26-.06.23.03.2-.12.15.15,1.14-.06.26-.15.23.06.23-.03.23.09.23-.09.41.03.29-.35.91-.15.18-.21.12-.23.03.06.26-.23.12-.15.21h-.26l-.32.23-1.08.12-.38.18h-.18l-.21-.09-.38.26-.97.23-.15.12-.47-.06-.23.06-.12-.18-.35.35-.21.06-.26-.09-.38.21-.67.23h-.47l-.32.38-.26.09.06.23-.2.58.06.23-.06.5.09.23v1.26l-.15.53.12.44.03.53-.15.5.2.26-.03.23.06.21.12.15.38.2.44.15.12-.23.44.03.15.15.23-.18.21.06.56-.03.23.06.18.21.06-.23h1.93l1.2-.06.5.18.26-.18.18.12v.21l.12-.15.5-.12.26.03.15.15.15-.18.64.26-.09.2-.18.12.26-.03.12.26-.38.58-.44.06-.09.12h-1.84l-.64-.12-.23.06-.26-.18-.09.29-.44-.12h-.44l-.44.12-.26-.18-.53.18-.35-.23-.26.18-.56-.09-.23-.09-.44.12-.18-.06-.38.18-.21-.09-1.35-.06-.41-.15-.26-.35-.09-.29.15-.26-.21-.58.12-.21-.09-.7.18-.18-.15-.29.15-.09.06-.18-.21-.2.06-.41-.09-1.84.03-.44.09-.23-.03-.21.15-.09-.15-.15-.06-.21.21.06-.09-.59.23-.41.18-.53h.18l.15-.38.38-.2.29-.26h.41l.18-.15.44-.18.97-.18.44-.2.38.09.2-.12.5-.15.21-.12.18.12.26.06.2-.26.32.09.18-.2.56.03.21-.15.21.12.12-.26.58.12.12-.29.26-.06.23-.15.29-.35.12-.23.18.09-.09-.41-.09-1.14.32-.06-.2-.38-.18-.12.06-.23.18-.15-.12-.18-.03-.21.15-.41-.21-.5.09-.2.21.09ZM249.87,106.77l.18-.09.06-.18-.18-.06-.06.32ZM250.1,92.08h.09v-.12h-.09v.12ZM250.1,92.46l.44.09v-.21l-.29-.03-.15.15ZM250.1,95.3l.21.12v-.21l-.21.09ZM250.1,109.78h.09v-.12h-.09v.12ZM250.25,107.03l.06-.2-.15.09.09.12ZM250.19,103.32l.15.18.23.03.03-.26-.06-.18-.15.15-.21.09ZM250.25,108.96l.09.15.2.03.06-.18-.12-.15-.23.15ZM250.48,104.02l.09-.18h-.18l.09.18ZM250.57,106.51h.12v-.12h-.12v.12ZM250.8,92.28l-.06-.18-.12-.09.03.18.15.09ZM250.86,111.04h.09v-.12h-.09v.12ZM251.33,91.7l.2-.15.06-.23-.15-.06-.06.23-.06.21ZM251.45,102.82l.03-.18-.15-.09.12.26ZM251.83,102.23l.12.06.03-.12-.15.06ZM251.89,110.34h.09v-.12h-.09v.12ZM251.97,91.52l.18-.09.09-.18-.03-.18-.21.18-.03.26ZM251.97,103.08l.12.06.06-.12-.12-.03-.06.09ZM252.15,110.87l.32-.03.21-.12-.15-.12-.2.15-.18.12ZM252.35,91.58l.15.5.23.15-.06-.21-.15-.18.15-.15.23.06-.18-.18-.26-.12-.12.12ZM252.79,102.67l.12-.23-.2.09.09.15ZM253.44,102l.12.06-.06-.15-.06.09ZM254.08,101.68l.32-.06-.18-.15-.15.21ZM254.08,110.93l.2-.03.12-.15h-.23l-.09.18ZM254.52,91.43h.12v-.12h-.12v.12ZM254.75,101.91l.15-.06-.12-.06-.03.12ZM254.78,110.6h.21l.18.12.12-.29.21.12h.18l-.15-.18-.23-.09-.15.15h-.21l-.15.18ZM255.11,101.74h.12v-.12h-.12v.12ZM255.4,102.06h.15l.23-.09-.12-.23-.15.18-.12.15ZM256.1,101.91l-.03-.23-.09-.15-.06.23.18.15ZM256.25,110.34l.23.03-.23-.15v.12ZM256.48,100.97h.15l-.15-.09v.09ZM256.63,101.62l.06-.21h-.18l.12.21ZM256.86,110.05h.09v-.09h-.09v.09ZM256.95,101.03l.12.23.29-.12.03-.23-.18.12h-.26ZM257.27,101.53l.06-.15-.12-.09.06.23ZM257.56,101.3l.21-.06.06-.15-.17.09-.09.12ZM257.65,110.87l.26.12-.09-.21-.17.09ZM257.91,100.77v-.18l-.15-.09.15.26ZM258.15,100.57l.15.09.18-.06-.15-.15-.18.12ZM258.35,101.09l.21-.15.29-.06-.23-.18-.15.2-.12.18ZM258.41,99.89h.12v-.09h-.12v.09ZM258.47,91.96l.12-.09-.12-.09v.18ZM258.62,93.1l.38-.12-.15-.12-.15.09-.09.15ZM258.62,98.49l.12.06-.06-.15-.06.09ZM259.32,94.33l-.06-.2-.18-.15-.23-.09.23.38.23.06ZM258.97,95.65l.21-.18-.21-.38-.06.41.06.15ZM258.91,95.97h.23l.18-.18.12.06-.12-.15-.21-.12-.06.18-.15.21ZM258.91,98.11l.26-.15h-.15l-.12.15ZM259,99.75l.15-.18-.09-.15-.12.18.06.15ZM258.97,92.66l.09.2.23.06.03-.18.12-.21-.26.09-.21.03ZM258.97,93.31l.23.06.12-.2-.23-.03-.12.18ZM259.17,110.75l.03-.18-.15-.15-.03.2.15.12ZM259.11,96.7l.23-.06.15-.15-.21-.03-.18.09v.15ZM259.17,94.95l.18.15.26-.06-.18-.15-.26.06ZM259.17,98.66l.18-.12-.12-.15-.06.26ZM259.55,98.17l-.09-.18.09-.41-.23-.06-.03.26.06.26.21.12ZM259.29,99.89l.21-.15-.18-.12-.03.26ZM259.32,94.51h.12v-.12h-.12v.12ZM259.55,98.6l.12.06.03-.12-.15.06Z"/>
          <path class="cls-2" d="M269.77,111.13l-.18.18-.21.09-.44-.03-.21-.09-.21.09-.18-.09-.17.09-.53.03-.21-.06-.12-.12-.23.18-.21-.18-.23.06-.2-.15-.26.06-.41-.2-.15-.21-.06-.2-.26-.09.12-.23-.18.06-.26-.41-.12-.44-.03-1.46-.06-.23.12-.38v-.53l-.12-.5.06-.18.15-.15-.09-.47-.06-1.08.15-.06-.21-.06.06-.47v-2.72l.15-.12-.09-.23-.03-.44.12-.61-.21-.41v-.23l.15-.18-.21-.15.12-.21.15-.56-.18-.38v-.2l.12-.44-.15-.5.03-.26.12-.15-.09-.29.06-.2-.06-1,.15-.41-.21-.12.21-.15-.15-.23v-1.11l.38-.29-.06-.09.09-.06-.03-.23.23-.32.41-.21-.12-.2.53-.23.12.18.38-.23.7-.09.18.15.26-.15h.94l.21-.06.44.09h.5l.21.06.15.12.15-.2.64.03.17.12.18-.2h.79l.38.15.44-.09.47.03.44.18.23-.18.76.38.15.18.06.21.21-.06.12.26.03.23.21.06v.5l.15.18.12.47-.06.76.03.23.09.18-.15.18.15.15-.29.23.12.18.06.23-.06.7.03.21.09.15-.18.2.12.21v.41l.12.21-.12.23.06.64-.06.2-.17.15.09.18v.41l.15.18-.03.23.09.15-.18.15.06.23-.06.2.09.21v.2l-.09.21.12,1.11-.18.23.06.44.18.47-.12.21v.2l-.12.18.12.23v.21l-.12.23.23.09-.12.44.06.44-.12.26.12.26-.23.26.17.35v.26h-.38l.09.09h.23l-.09.23.06.23.15.21-.06.2-.17.12.2.47-.03.26-.12.18.09.23.03.47-.15.44-.47.5-.21.09.06.23-.67.35-.23.06-.23-.06-.26.23-.38-.18-.21.09-.91-.06-.23.09-.12-.21-.23.03-.15.18-.38-.09-.97.06-.47-.03v-.21ZM265.12,99.34l.32-.09-.18-.03-.15.12ZM265.18,92.6l.21-.12h-.21v.12ZM265.5,94.86v-.18l-.23-.09.09.18.15.09ZM265.26,107.38l.15-.09-.15-.12v.2ZM265.64,93.07l-.06-.21h-.26l.15.12.17.09ZM265.32,100.65l.18.06.15-.06-.2-.09-.12.09ZM265.5,97.29l.38-.26h-.32l-.06-.2-.09.2.09.26ZM265.44,101.82h.12v-.09h-.12v.09ZM265.5,95.62l.12-.03-.06-.03-.06.06ZM266.02,99.51l-.12-.2-.03-.23-.23-.03-.15-.09.06.23.12.15.35.18ZM265.64,101.24l.06-.23.26-.35-.18.06-.18.15-.06.21.09.18ZM265.64,97.73v.12l.21-.06-.21-.06ZM265.7,94.04h.26l.06-.09h-.23l-.09.09ZM265.7,98.81l.21-.06-.03-.21-.18.26ZM265.82,99.63l-.12.2v.21l.21-.09.15-.15.03-.23-.26.06ZM265.88,93.13l.06.18.15-.23-.21.06ZM265.94,100.48l.15-.09-.12-.12-.03.2ZM266.26,92.25l-.23-.21v.21h.23ZM266.02,108h.12v-.12h-.12v.12ZM269.21,92.37l-.44-.15-1.35.15-.21-.06-.38.29-.21.09-.03.26-.47.38.38.06-.09.21v1.14l-.18.38.21.64-.15.18-.06.2.21.23-.06.2.03.73.09.29-.15.09-.09.15.18.15-.09.41.09.18-.23.09-.15.15v.2l.21-.2.09.41v1.87l.09.47-.12.15v.21l.12.47-.03.23-.15.18.12.97-.03.91.09,1-.18.29.18.26-.09,1.76-.09.18.12.2v.26l-.12.18.12.38.23.12.21.5.26-.12.15.18.15.03.38-.09h.29l-.03.21.18-.09.17.03.18.12.18-.23h.7l.26.06.09-.09.47.06h1.49l-.18.15.21-.03.18-.18.44.09.53-.03.44.09.47-.18.53-.47-.06-.26.18-.38.03-.7-.09-.2v-.82l-.06-.23.21.06-.06-.18.06-.2-.18-.15v-.23l.18-.47-.18-.32.15-.2.03-.21-.18-.67.29-.26-.29-.38.06-.53v-1.35l.18-.73-.18-.47v-.26l.12-.23-.18-.06.09-.26-.12-.44h.15l-.15-.21.09-.23.12-.15-.18-.7.06-.67.15-.09.03-.23-.23-.09.12-.2-.03-.38-.09-.23h.18l-.21-.5.09-.21-.09-.18.09-.21.06-.41-.18-1.38.03-.21-.23-.12-.12-.21h-.2l-.12-.23-.21.12-.44-.2-.15.12h-.94l-.21.09-.21-.15-.23-.06-.12.2-.2-.12h-.67l-.17-.09-.29.2-.15-.09h-.23l-.26.03ZM266.73,92.43l.06-.2-.32-.12.12.18.15.15ZM266.84,91.99l-.21-.15.12.2.47-.06-.23-.2-.15.2ZM267.43,110.75l-.26-.06.12.15.15-.09ZM267.6,110.49h.09l-.03-.18-.06.18ZM267.75,91.29l.12-.06-.12-.09v.15ZM269.07,91.79l-.12-.38h-.21l-.09-.15-.21-.06.26.35.35.23ZM268.89,110.75h.21l.06-.12h-.26v.12ZM269.33,91.14l.06.21.15.12v-.44l-.21.12ZM269.54,111.01h.21l.06-.12h-.26v.12ZM270.03,110.75h.12v-.12h-.12v.12ZM270.35,91.29v.18l.44.09-.03-.15-.18-.15-.23.03ZM270.62,110.87v-.18h-.15l.15.18ZM271.2,110.9h.12v-.09h-.12v.09ZM271.26,110.31h.12l.06-.15h-.12l-.06.15ZM271.5,91.67l.21-.12h-.21v.12ZM272.26,91.02l.21.12h.21l-.18-.2-.23.09ZM272.26,91.4l.21.12.21-.06-.26-.12-.15.06ZM272.73,110.69l.23-.03.09.15.17-.03.09-.15-.21-.12-.23-.03-.15.2ZM272.99,91.84l.15.03.09-.15-.23.12ZM273.31,91.35l.12.06-.12-.18v.12ZM273.75,110.9h.23l.09-.21.18-.18-.26.06-.12-.09.06.23-.18.18ZM273.81,91.46l.12.06h.2l.06-.18-.06-.15-.17.12-.15.15ZM273.81,110.19l.06.21.26.03-.15-.26-.17.03ZM274.13,109.87l.18-.26-.18.12v.15ZM274.19,110.11l.18-.12h-.12l-.06.12ZM274.51,92.49l.15-.06.06-.18-.15-.03-.06.26ZM274.69,93.13l-.18.26.23.03.41-.12-.23-.06-.23-.12ZM274.95,110.19l-.38.06.12.15.21.03.5-.88-.12-.09-.32.56v.18ZM274.69,105.13h.09v-.12h-.09v.12ZM275.15,96.12l-.12.21-.2.06-.12.2h.76l-.21-.15.26-.32h-.38ZM274.77,105.77l.26.09.18.18-.03-.2-.21-.15-.2.09ZM274.83,92.25l.09.18v.21l.17.06.06-.47-.18-.06-.15.09ZM275.15,108.2l-.09.23.15.15.06-.23.26-.06.18-.15-.38.06-.12-.21h-.38l.12.15.21.06ZM274.95,98.63l.12-.06.03-.2-.17.12.03.15ZM274.95,99.72v.2l.15.06.06-.32-.21.06ZM274.95,107.44l.12.38.23-.12.18-.21-.32-.03-.21-.03ZM275.39,97.84l-.23-.15-.15.15.21-.03.12.18.23-.06.15-.15h-.15l-.18.06ZM275.1,95.77l.12.06-.06-.15-.06.09ZM275.1,100.8l.18-.12.06-.26-.15.09.03.18-.12.12ZM275.1,106.65l.18.09.06-.18-.12-.15-.12.23ZM275.15,105.6l.15-.09-.03-.18-.12.26ZM275.15,109.02h.18l-.18-.23v.23ZM275.21,101.3l.18.06-.12-.18-.06.12ZM275.54,99.34l-.03-.18-.23-.09.09.18.18.09ZM275.42,105.01v-.2l-.15.12.15.09ZM275.33,95.56h.09v-.12h-.09v.12ZM275.48,102.38v-.18h-.15l.15.18ZM275.48,108.79v-.09h-.15l.15.09ZM275.42,101.56l.12.06.06-.12-.12-.06-.06.12ZM275.48,92.93h.12v-.12h-.12v.12ZM275.54,105.66l.15-.09-.09-.12-.06.21ZM275.54,107.44h.12v-.09h-.12v.09ZM275.59,99.57l.12.06.06-.12-.12-.06-.06.12ZM275.77,93.63h.09v-.12h-.09v.12Z"/>
          <path class="cls-2" d="M290.2,95.68l-.18-.38-.03-.64-.12-.21.09-.21-.03-.38.32.03-.38-.47.03-.29-.06-.23-.44-.5-1.4-.09-.23.03-.32-.18-.2.09-.38.06-.26-.03-.32-.59-.06.23.09.23-.15.12-.21.06-.88-.09-.23.03-.21.12-.15-.23-.47.18h-.47l-.21-.06-.38.2-.32.29-.21.41-.06.23.09.15v.88l-.09.44h-.18l.15.15.09.2.06.44-.03.5-.21.06.15.15-.12.2-.21.12-.26.06-.67-.35-.18-.15-.06-.2.09-.26-.15-.32.12-.26v-.5l.09-.2-.2-.12.09-.18-.09-.91.03-.2.12-.18-.09-.09.09-.2v-.41l.21-.44.67-.61.59-.35.23.12.2-.12.41-.03.44.06.5-.03.18.18.38-.2.23-.03.18.12.21-.09.47-.03.15.12.38-.15.2.21.21-.09.5-.06h.97l.23-.06-.06.26.21-.12h.88l.26-.06.44.18.94.64.06.47.29.61-.06.56.12.21-.12.15-.03.23.15.15-.06.44-.15.06.15.15-.03.38.06.23-.12.21.09.23-.09.21.15.26-.06.23.03.2-.12.15.15,1.14-.06.26-.15.23.06.23-.03.23.09.23-.09.41.03.29-.35.91-.15.18-.21.12-.23.03.06.26-.23.12-.15.21h-.26l-.32.23-1.08.12-.38.18h-.18l-.21-.09-.38.26-.97.23-.15.12-.47-.06-.23.06-.12-.18-.35.35-.21.06-.26-.09-.38.21-.67.23h-.47l-.32.38-.26.09.06.23-.21.58.06.23-.06.5.09.23v1.26l-.15.53.12.44.03.53-.15.5.21.26-.03.23.06.21.12.15.38.2.44.15.12-.23.44.03.15.15.23-.18.2.06.56-.03.23.06.17.21.06-.23h1.93l1.2-.06.5.18.26-.18.18.12v.21l.12-.15.5-.12.26.03.15.15.15-.18.64.26-.09.2-.18.12.26-.03.12.26-.38.58-.44.06-.09.12h-1.84l-.64-.12-.23.06-.26-.18-.09.29-.44-.12h-.44l-.44.12-.26-.18-.53.18-.35-.23-.26.18-.56-.09-.23-.09-.44.12-.17-.06-.38.18-.21-.09-1.35-.06-.41-.15-.26-.35-.09-.29.15-.26-.2-.58.12-.21-.09-.7.17-.18-.15-.29.15-.09.06-.18-.2-.2.06-.41-.09-1.84.03-.44.09-.23-.03-.21.15-.09-.15-.15-.06-.21.2.06-.09-.59.23-.41.18-.53h.18l.15-.38.38-.2.29-.26h.41l.18-.15.44-.18.97-.18.44-.2.38.09.21-.12.5-.15.21-.12.18.12.26.06.21-.26.32.09.18-.2.56.03.21-.15.21.12.12-.26.58.12.12-.29.26-.06.23-.15.29-.35.12-.23.18.09-.09-.41-.09-1.14.32-.06-.2-.38-.18-.12.06-.23.18-.15-.12-.18-.03-.21.15-.41-.21-.5.09-.2.21.09ZM281.39,106.77l.18-.09.06-.18-.18-.06-.06.32ZM281.63,92.08h.09v-.12h-.09v.12ZM281.63,92.46l.44.09v-.21l-.29-.03-.15.15ZM281.63,95.3l.2.12v-.21l-.2.09ZM281.63,109.78h.09v-.12h-.09v.12ZM281.77,107.03l.06-.2-.15.09.09.12ZM281.71,103.32l.15.18.23.03.03-.26-.06-.18-.15.15-.2.09ZM281.77,108.96l.09.15.21.03.06-.18-.12-.15-.23.15ZM282.01,104.02l.09-.18h-.18l.09.18ZM282.09,106.51h.12v-.12h-.12v.12ZM282.33,92.28l-.06-.18-.12-.09.03.18.15.09ZM282.39,111.04h.09v-.12h-.09v.12ZM282.85,91.7l.21-.15.06-.23-.15-.06-.06.23-.06.21ZM282.97,102.82l.03-.18-.15-.09.12.26ZM283.35,102.23l.12.06.03-.12-.15.06ZM283.41,110.34h.09v-.12h-.09v.12ZM283.5,91.52l.17-.09.09-.18-.03-.18-.2.18-.03.26ZM283.5,103.08l.12.06.06-.12-.12-.03-.06.09ZM283.67,110.87l.32-.03.21-.12-.15-.12-.21.15-.18.12ZM283.88,91.58l.15.5.23.15-.06-.21-.15-.18.15-.15.23.06-.18-.18-.26-.12-.12.12ZM284.32,102.67l.12-.23-.21.09.09.15ZM284.96,102l.12.06-.06-.15-.06.09ZM285.6,101.68l.32-.06-.18-.15-.15.21ZM285.6,110.93l.21-.03.12-.15h-.23l-.09.18ZM286.04,91.43h.12v-.12h-.12v.12ZM286.28,101.91l.15-.06-.12-.06-.03.12ZM286.31,110.6h.2l.18.12.12-.29.21.12h.18l-.15-.18-.23-.09-.15.15h-.2l-.15.18ZM286.63,101.74h.12v-.12h-.12v.12ZM286.92,102.06h.15l.23-.09-.12-.23-.15.18-.12.15ZM287.62,101.91l-.03-.23-.09-.15-.06.23.18.15ZM287.77,110.34l.23.03-.23-.15v.12ZM288.01,100.97h.15l-.15-.09v.09ZM288.15,101.62l.06-.21h-.18l.12.21ZM288.38,110.05h.09v-.09h-.09v.09ZM288.47,101.03l.12.23.29-.12.03-.23-.18.12h-.26ZM288.8,101.53l.06-.15-.12-.09.06.23ZM289.09,101.3l.2-.06.06-.15-.17.09-.09.12ZM289.18,110.87l.26.12-.09-.21-.17.09ZM289.44,100.77v-.18l-.15-.09.15.26ZM289.67,100.57l.15.09.18-.06-.15-.15-.18.12ZM289.88,101.09l.21-.15.29-.06-.23-.18-.15.2-.12.18ZM289.94,99.89h.12v-.09h-.12v.09ZM290,91.96l.12-.09-.12-.09v.18ZM290.14,93.1l.38-.12-.15-.12-.15.09-.09.15ZM290.14,98.49l.12.06-.06-.15-.06.09ZM290.84,94.33l-.06-.2-.18-.15-.23-.09.23.38.23.06ZM290.49,95.65l.21-.18-.21-.38-.06.41.06.15ZM290.43,95.97h.23l.18-.18.12.06-.12-.15-.21-.12-.06.18-.15.21ZM290.43,98.11l.26-.15h-.15l-.12.15ZM290.52,99.75l.15-.18-.09-.15-.12.18.06.15ZM290.49,92.66l.09.2.23.06.03-.18.12-.21-.26.09-.21.03ZM290.49,93.31l.23.06.12-.2-.23-.03-.12.18ZM290.7,110.75l.03-.18-.15-.15-.03.2.15.12ZM290.64,96.7l.23-.06.15-.15-.21-.03-.18.09v.15ZM290.7,94.95l.18.15.26-.06-.18-.15-.26.06ZM290.7,98.66l.18-.12-.12-.15-.06.26ZM291.08,98.17l-.09-.18.09-.41-.23-.06-.03.26.06.26.21.12ZM290.81,99.89l.21-.15-.18-.12-.03.26ZM290.84,94.51h.12v-.12h-.12v.12ZM291.08,98.6l.12.06.03-.12-.15.06Z"/>
          <path class="cls-2" d="M306.27,108.55l.35.59v.2l-.12.18.12.38.03.76-.18.12-.41.53h-.29l-.44-.21-.21-.32-.09-.47.06-1.43-.12-.18.12-.21-.06-.23.32-.2-.38-.21.06-.5-.06-.15.21-.18-.09-.2-.06-.44v-.88l-.06-.2.12-.12.21-.06-.32-.15-.03-.23-.26-.29-.09-.18-.5.12-.09-.23-.21.09h-.47l-.15.15-.21-.23-.18.18-.64-.12-.23.12-1.02-.12-.2.03-.18.15-.41-.23-.38.15-1.46-.06-.56.03-.35-.38-.23.12-.15-.18-.35-.26-.26-.38-.06-.26-.32-.5.15-.59-.09-.23.26-.32h-.35l.09-.47.17-.12-.23-.15.06-.73-.15-.41.15-.23-.09-.38.06-.21-.06-1.02.09-.5.12-.2-.12-.21-.15-.12.12-.88-.06-1.67.15-.26-.21-.44.15-.26-.09-.26.09-.47-.06-.47.03-.5.09-.26.23.03.53-.29.12.18h.17l.18.09.23.38.03.23-.06.53-.18.32.26.29-.09.21.09.15-.26.23.18.15.03.18-.09.67.09.23-.09.23-.03.41.12.44-.18.26.12.47v1.4l.06,1-.21.23.12.21-.03.47-.09.23.21.21-.06.47.12.47-.15.73.09.18.21.12-.09.2.53.32.67.03.35.21.44-.23v.18l.18-.09.5-.03,1.32.06.17-.06.26.12.18-.18.32.23.47-.15h.23l.15.15.17-.12,1-.15.21-.09.15-.21-.06-.26.21-.12-.15-.26.09-.18-.03-.67.15-.12-.09-.2-.18-.12.12-.23v-.26l.09-.26-.12-.44.12-.15-.06-.29.03-.23-.12-.23.06-.21-.06-.7.03-.23.12-.2-.12-.23.03-.67-.12-.23.15-.18.03-.64.15-.09-.21-.18-.06-.53.03-.23.12-.15-.09-.44v-2.11l.41-.38.23.12.21-.23.44.12v.23l.17.09.12,1-.03.26-.09.21.15.2-.15.61.15.21-.12.44.09.99-.09.18.12.38-.2.12.2.12v.38l-.44.21.38.06.06.53-.09.73.09.23-.09.23-.03.47.06.29-.2.06.2.15-.06.23.12.5-.12.23.18.18-.15.47-.12.21-.23.09.29.15.09.73.18.41.15.18.82.15.32-.15.12.21.44-.12.09.15.32.26.12.23-.09.15-.18.03.03.26-.12.18-.35.26-1.11-.03-.41.15-.15.18-.23.73.09.26-.12.5.09.91-.15.56.2.53-.12.2-.15.12.12.15.21.03-.23.15-.2-.15ZM296.17,97.52l.15-.12h-.09l-.06.12ZM296.23,100.97l.09.15.12-.15h-.21ZM296.29,92.6h.09l-.06-.15-.03.15ZM296.55,96.61h.12v-.12h-.12v.12ZM296.7,96.35l.15-.09.03-.2h-.18v.29ZM296.76,91.43h.12v-.12h-.12v.12ZM296.99,94.65h.09v-.09h-.09v.09ZM296.99,96.12l.15-.06-.12-.06-.03.12ZM297.02,92.28h.12l-.06-.15-.06.15ZM297.08,102.56h.12l-.17-.06.06.06ZM297.08,94.19l.15-.18-.09-.15-.06.32ZM297.9,103.73l.17-.09.09-.18-.2.06-.06.2ZM299.68,103.73l.18-.06.09-.2-.2.06-.06.2ZM300.71,103.78l-.09-.47-.12-.18v.53l.21.12ZM300.77,103.46h.12v-.09h-.12v.09ZM301.47,103.9l-.18.06.12.09.06-.15ZM302.87,103.9l.12.06.03-.12-.15.06ZM303.84,103.7h.18l-.12-.23-.06.23ZM303.96,104.05l.09-.21-.15-.06.06.26ZM305.57,92.49l-.15.06.09.09.06-.15ZM305.45,102.38h.12l-.06-.15-.06.15ZM305.51,95.15h.12v-.12h-.12v.12ZM305.62,93.04h.15l.03-.26-.06.18-.12.09ZM305.62,94.51h.12v-.12h-.12v.12ZM305.62,98.08l.21-.18-.15-.06-.06.23ZM305.62,104.4h.26l-.15-.15-.12.15ZM305.68,97.2l.18-.06.03-.2-.18.06-.03.2ZM305.68,99.8h.21l.15-.15.09-.23-.06-.18-.09.23-.15.18-.15.15ZM305.74,105.13h.09v-.09h-.09v.09ZM305.8,109.67l.21-.03.15-.12-.23-.03-.18-.15.06.32ZM305.8,96.38h.09l-.09-.15v.15ZM305.8,98.49h.15l-.15-.09v.09ZM305.8,100.27l.15.06-.12-.15-.03.09ZM305.83,109.26l.18-.09.12-.21-.21.09-.09.2ZM305.89,92.08l.23-.12-.23-.06v.18ZM306.01,97.76l.03-.15-.15-.09.12.23ZM306.12,103.96v.09l.03-.15-.03.06ZM306.27,103.4l.2.06.12-.41-.09-.18-.23.29v.23ZM306.77,103.58h.09v-.12h-.09v.12ZM306.91,103.08l.12.06.06-.12-.12-.03-.06.09ZM308.11,103.52v.12l.06-.18-.06.06Z"/>
        </g>
        <g>
          <path class="cls-2" d="M111.34,169.67c-2.7,0-4.94-2.24-4.94-4.94v-36.25c0-2.7,2.24-4.94,4.94-4.94h18.58c2.7,0,4.94,2.24,4.94,4.94v7.71c0,.99-.59,1.91-1.52,2.31l-7.18,2.96c-.73.33-1.52-.2-1.52-.99v-7.45c0-.2-.13-.33-.33-.33h-7.38c-.2,0-.33.13-.33.33v27.15c0,.2.13.33.33.33h7.38c.2,0,.33-.13.33-.33v-7.45c0-.79.79-1.32,1.52-.99l7.18,2.97c.92.4,1.52,1.32,1.52,2.31v7.71c0,2.7-2.24,4.94-4.94,4.94h-18.58Z"/>
          <path class="cls-2" d="M147.19,169.67c-2.7,0-4.94-2.24-4.94-4.94v-36.25c0-2.7,2.24-4.94,4.94-4.94h19.77c2.7,0,4.94,2.24,4.94,4.94v36.25c0,2.7-2.24,4.94-4.94,4.94h-19.77ZM152.79,132.7c-.2,0-.33.13-.33.33v27.15c0,.2.13.33.33.33h8.57c.2,0,.33-.13.33-.33v-27.15c0-.2-.13-.33-.33-.33h-8.57Z"/>
          <path class="cls-2" d="M203.86,169.67c-.99,0-1.91-.59-2.31-1.52l-10.81-25.11c-.07-.13-.13-.07-.13,0v24.98c0,.92-.73,1.65-1.65,1.65h-6.92c-.92,0-1.65-.73-1.65-1.65v-42.84c0-.92.73-1.65,1.65-1.65h7.05c.99,0,1.91.59,2.31,1.52l10.81,25.17c.07.13.13.07.13,0v-25.04c0-.92.72-1.65,1.65-1.65h6.92c.92,0,1.65.73,1.65,1.65v42.84c0,.92-.73,1.65-1.65,1.65h-7.05Z"/>
          <path class="cls-2" d="M220.26,132.7c-.92,0-1.65-.72-1.65-1.65v-5.87c0-.92.73-1.65,1.65-1.65h26.62c.92,0,1.65.73,1.65,1.65v5.87c0,.92-.73,1.65-1.65,1.65h-7.84c-.2,0-.33.13-.33.33v35c0,.92-.73,1.65-1.65,1.65h-6.92c-.92,0-1.65-.73-1.65-1.65v-35c0-.2-.13-.33-.33-.33h-7.91Z"/>
          <path class="cls-2" d="M256.24,169.67c-.92,0-1.65-.73-1.65-1.65v-42.84c0-.92.73-1.65,1.65-1.65h23c2.7,0,4.94,2.24,4.94,4.94v19.31c0,2.7-2.24,4.94-4.94,4.94h-1.19c-.13,0-.26.13-.2.26l8.24,15.22c.39.66-.13,1.45-.86,1.45h-7.38c-.99,0-1.98-.59-2.44-1.45l-8.24-15.22c-.07-.13-.26-.26-.46-.26h-1.58c-.2,0-.33.13-.33.33v14.96c0,.92-.72,1.65-1.65,1.65h-6.92ZM265.14,132.7c-.2,0-.33.13-.33.33v10.22c0,.2.13.33.33.33h8.83c.2,0,.33-.13.33-.33v-10.22c0-.2-.13-.33-.33-.33h-8.83Z"/>
          <path class="cls-2" d="M297.76,169.67c-2.7,0-4.94-2.24-4.94-4.94v-36.25c0-2.7,2.24-4.94,4.94-4.94h19.77c2.7,0,4.94,2.24,4.94,4.94v36.25c0,2.7-2.24,4.94-4.94,4.94h-19.77ZM303.36,132.7c-.2,0-.33.13-.33.33v27.15c0,.2.13.33.33.33h8.57c.2,0,.33-.13.33-.33v-27.15c0-.2-.13-.33-.33-.33h-8.57Z"/>
          <path class="cls-2" d="M332.62,169.67c-.92,0-1.65-.73-1.65-1.65v-42.84c0-.92.73-1.65,1.65-1.65h6.92c.92,0,1.65.73,1.65,1.65v34.99c0,.2.13.33.33.33h13.58c.92,0,1.65.73,1.65,1.65v5.87c0,.92-.72,1.65-1.65,1.65h-22.47Z"/>
        </g>
        <path class="cls-2" d="M2.2,5.93c2.36-.64,8.4,4.11,10.78,7.85.67,1.05,3.63,6.71,2.53,7.32-5.01,1.42-3.13-.16-5.72-4.39C5.74,10.09.54,9.52.21,8.99c.67-1.02,1.33-2.04,2-3.06Z"/>
        <path class="cls-2" d="M102.84,5.93c1.7-.12,2.63,2.73,2.53,3.06-.26.86-8.57,2.48-11.05,13.18l-3.99-.8c-.01-4.64,4.59-10.83,8.25-13.31,1.42-.71,2.84-1.42,4.26-2.13Z"/>
        <path class="cls-2" d="M16.05,23.76c.35,6.82-.66,13.57-.93,20.37-2.97,1.64-5.95,3.28-8.92,4.93-1.19-.17-2.14-4.85-2-5.99.36-2.94,6.13-4.79,5.59-8.52l-3.99-7.19c1.08-.49,2.65.39,2.8.4,3.27.14,3.88-3.5,7.45-3.99Z"/>
        <path class="cls-2" d="M90.06,24.03c3.17.08,4.9,3.23,5.86,3.46l4.39-.4c.8,1.26-3.96,6.13-3.73,8.52.24,2.49,5.85,5.28,5.32,11.18-.22.75-.44,1.51-.67,2.26-1.7.71-8.13-4.46-9.98-5.46.39-6.56-1.23-13.02-1.2-19.57Z"/>
        <path class="cls-2" d="M89.53,46.66c.53.18,1.06.35,1.6.53,2.17,1.91,4.35,3.82,6.52,5.72-1.15.96-9.25,8.36-9.98,7.85-.14-3.86-1.22-7.55-2.8-11.05,1.55-1.02,3.11-2.04,4.66-3.06Z"/>
        <path class="cls-2" d="M16.31,46.92c1.73.84,3.46,1.69,5.19,2.53-1.74,3.67-2.6,7.54-3.06,11.58-.57.39-8.91-7.18-9.98-8.12,2.62-2,5.24-3.99,7.85-5.99Z"/>
        <g>
          <path class="cls-2" d="M14.36,150.3c5.05,8.11,10.04,16.4,16.37,23.57-2.22.78-5.27,3.97-6.5,3.02-.7-1.7-1.39-3.41-2.09-5.11-1.63-2.71-3.25-5.42-4.88-8.13-.48-1.15-3.95-13.2-2.9-13.35Z"/>
          <path class="cls-2" d="M29.69,177.47c1.84-.32,5.79,9.85,4.76,15.21-.92,4.76-4.23,2.35-4.41,1.86-.27-.71,1.37-2.65.7-7.2-.66-4.44-3.41-7.24-3.48-7.66.81-.74,1.63-1.47,2.44-2.21Z"/>
        </g>
        <g>
          <path class="cls-2" d="M8.92,116.42c.24,9.55.34,19.23,2.16,28.61-2.31-.45-6.55.75-7.13-.69.26-1.82.53-3.64.79-5.46-.03-3.16-.05-6.32-.08-9.48.17-1.23,3.29-13.38,4.27-12.98Z"/>
          <path class="cls-2" d="M8.36,147.61c1.75.65,0,11.43-3.61,15.52-3.2,3.64-4.83-.12-4.74-.64.13-.74,2.52-1.59,4.25-5.85,1.69-4.16.74-7.97.88-8.37,1.07-.22,2.15-.44,3.22-.67Z"/>
        </g>
        <g>
          <path class="cls-2" d="M92.38,149.37c.86.13-3.12,13.53-3.13,14.74l-4.88,8.36c-3.22,6.08-.09,5.91-8.13,1.16,6.46-7.3,11.03-16,16.14-24.27Z"/>
          <path class="cls-2" d="M76.82,177.47c4.49,2.13,2.44,2.14,1.51,3.83-4.76,8.6-1.22,12.69-1.39,13.47-.13.58-3.95,3.09-4.64-2.79-.67-5.68,1.08-10.16,4.53-14.51Z"/>
        </g>
      </g>
      <path class="cls-2" d="M52.26,32.28c-8.37.37-16.61,4.73-21.96,11.05-3.8,4.49-6.88,9.85-7.32,15.84,20.19.04,40.38.09,60.57.13-1.53-15.2-15.96-27.69-31.28-27.02Z"/>
      <path class="cls-2" d="M64.63,0s4.78,4.49,5.15,7.4c.37,2.9-7.77-4.21-7.77-4.21,0,0-2.9-1.15-2,3.85.11.6.57,1.07,1.16,1.21,2.58.61,9.44,3.04,6.84,11.32,0,0-2.41,6.27-14.81.71h0s0,0,0,0c0,0,0,0,0,0h0c-12.4,5.56-14.81-.71-14.81-.71-2.6-8.28,4.25-10.71,6.84-11.32.59-.14,1.05-.61,1.16-1.21.9-4.99-2-3.85-2-3.85,0,0-8.15,7.12-7.77,4.21.37-2.9,5.15-7.4,5.15-7.4-23.25,12.38-10.8,35.44-9.34,37.97,5.28-5.08,12.72-8.08,20.06-8.4.24-.01.48,0,.72-.01.24,0,.48,0,.72.01,7.33.32,14.78,3.32,20.06,8.4,1.46-2.54,13.91-25.59-9.34-37.97Z"/>
    </g>
  </g>
</svg>