<?xml version="1.0" encoding="UTF-8"?>
<svg id="katman_1" xmlns="http://www.w3.org/2000/svg" version="1.1" viewBox="0 0 600 450">
  <!-- Generator: Adobe Illustrator 29.0.0, SVG Export Plug-In . SVG Version: 2.1.0 Build 186)  -->
  <defs>
    <style>
      .st0 {
        fill: #8ed500;
        fill-rule: evenodd;
      }
    </style>
  </defs>
  <path class="st0" d="M208.2,126.3c29.1-42.8,81-71.3,141.5-71.3,94.1,0,166.6,67.3,166.6,152.9v179.1c0,4.6-3.4,8-8,8h-74.7c-4.6,0-8-3.4-8-8v-167.1c0-37.1-28.5-79.3-75.3-79.3s-75.3,42.2-75.3,79.3v166.6c0,4.6-3.4,8-8,8h-75.9c-3.4,0-6.3-1.7-7.4-5.1-.6-1.1-.6-2.3-.6-2.9v-160.9c0-5.1-3.4-9.1-8-10.3-65.6-18.3-89.6-68.5-91.3-140.3,0-3.4,1.7-6.3,5.1-7.4,1.1-.6,2.3-.6,3.4-.6h58.8v.6h17.7c4.6,0,8,3.4,8,8,1.1,29.7,6.8,45.1,20.5,53.6,3.4,1.7,8.6.6,10.8-2.9h0Z"/>
</svg>